<svg xmlns="http://www.w3.org/2000/svg" xmlns:xlink="http://www.w3.org/1999/xlink" xmlns:lucid="lucid" width="2444" height="712.25"><g transform="translate(-1398 210.25474609375)" lucid:page-tab-id="0_0"><path d="M1400-154a6 6 0 0 1 6-6h2428a6 6 0 0 1 6 6v648a6 6 0 0 1-6 6H1406a6 6 0 0 1-6-6z" stroke="#000" stroke-width="4" fill-opacity="0"/><path d="M1400-202.25a6 6 0 0 1 6-6h242.84a6 6 0 0 1 6 6V-178a6 6 0 0 1-6 6H1406a6 6 0 0 1-6-6z" stroke="#000" stroke-width="4"/><use xlink:href="#a" transform="matrix(1,0,0,1,1408,-200.25474609375) translate(0 16.589501953125)"/><use xlink:href="#b" transform="matrix(1,0,0,1,1408,-200.25474609375) translate(110.158681640625 16.589501953125)"/><path d="M2114.74-14.62a6 6 0 0 1 6-6h451.84a6 6 0 0 1 6 6V372.2a6 6 0 0 1-6 6h-451.84a6 6 0 0 1-6-6z" stroke="#54c45e" stroke-width="4" fill-opacity="0"/><path d="M2114.74-62.87a6 6 0 0 1 6-6h146.54a6 6 0 0 1 6 6v24.25a6 6 0 0 1-6 6h-146.54a6 6 0 0 1-6-6z" stroke="#54c45e" stroke-width="4" fill="#54c45e"/><use xlink:href="#c" transform="matrix(1,0,0,1,2122.742187166666,-60.870044132939725) translate(0 16.589501953125)"/><use xlink:href="#d" transform="matrix(1,0,0,1,2122.742187166666,-60.870044132939725) translate(52.263457031250006 16.589501953125)"/><use xlink:href="#e" transform="matrix(1,0,0,1,2122.742187166666,-60.870044132939725) translate(68.04711914062501 16.589501953125)"/><path d="M1470 284.8a6 6 0 0 1 6-6h188a6 6 0 0 1 6 6v90.5a6 6 0 0 1-6 6h-188a6 6 0 0 1-6-6z" stroke="#a0a8b9" stroke-width="2" fill="#ced4db"/><use xlink:href="#f" transform="matrix(1,0,0,1,1482,290.793079278813) translate(42.95334201388889 31.40277777777778)"/><use xlink:href="#g" transform="matrix(1,0,0,1,1482,290.793079278813) translate(14.817491319444457 63.66840277777778)"/><use xlink:href="#h" transform="matrix(1,0,0,1,1482,290.793079278813) translate(21.067491319444457 63.66840277777778)"/><use xlink:href="#i" transform="matrix(1,0,0,1,1482,290.793079278813) translate(91.55360243055556 63.66840277777778)"/><path d="M1470-94a6 6 0 0 1 6-6h188a6 6 0 0 1 6 6v91.1a6 6 0 0 1-6 6h-188a6 6 0 0 1-6-6z" stroke="#a0a8b9" stroke-width="2" fill="#ced4db"/><use xlink:href="#j" transform="matrix(1,0,0,1,1482,-88.00000000000001) translate(41.347439236111114 31.84027777777778)"/><use xlink:href="#k" transform="matrix(1,0,0,1,1482,-88.00000000000001) translate(0.2667100694444571 64.10590277777777)"/><use xlink:href="#l" transform="matrix(1,0,0,1,1482,-88.00000000000001) translate(79.63953993055556 64.10590277777777)"/><path d="M3287.92 182.5c13.25 0 24 43.38 24 96.9 0 53.5-10.75 96.88-24 96.88h-192c-13.26 0-24-43.38-24-96.9 0-53.5 10.74-96.88 24-96.88z" stroke="#ad954e" stroke-width="2" fill="#fc9432"/><path d="M3287.92 376.28c-13.26 0-24-43.38-24-96.9 0-53.5 10.74-96.88 24-96.88" stroke="#ad954e" stroke-width="2" fill="none"/><use xlink:href="#m" transform="matrix(1,0,0,1,3083.919271,194.5) translate(14.203776041666657 67.34809027777777)"/><use xlink:href="#n" transform="matrix(1,0,0,1,3083.919271,194.5) translate(51.052734374999986 67.34809027777777)"/><use xlink:href="#o" transform="matrix(1,0,0,1,3083.919271,194.5) translate(18.945638020833314 94.87760416666667)"/><use xlink:href="#p" transform="matrix(1,0,0,1,3083.919271,194.5) translate(105.29069010416667 94.87760416666667)"/><use xlink:href="#q" transform="matrix(1,0,0,1,3083.919271,194.5) translate(31.344726562499993 120.04479166666667)"/><use xlink:href="#r" transform="matrix(1,0,0,1,3083.919271,194.5) translate(98.2744140625 120.04479166666667)"/><path d="M2732.5-135.07a11.46 11.46 0 0 1 9.42-4.93h180a11.46 11.46 0 0 1 9.42 4.93l57.16 82.52a8.66 8.66 0 0 1 0 9.87l-57.16 82.52a11.46 11.46 0 0 1-9.42 4.93h-180a11.46 11.46 0 0 1-9.42-4.93l-57.16-82.52a8.66 8.66 0 0 1 0-9.87z" stroke="#ad954e" stroke-width="2" fill="#ffdda6"/><use xlink:href="#s" transform="matrix(1,0,0,1,2683.919271,-128) translate(82.46138020833335 46.68402777777778)"/><use xlink:href="#t" transform="matrix(1,0,0,1,2683.919271,-128) translate(8.985794270833347 78.94965277777777)"/><use xlink:href="#u" transform="matrix(1,0,0,1,2683.919271,-128) translate(65.7349262152778 78.94965277777777)"/><use xlink:href="#v" transform="matrix(1,0,0,1,2683.919271,-128) translate(137.1758984375 78.94965277777777)"/><use xlink:href="#w" transform="matrix(1,0,0,1,2683.919271,-128) translate(153.64725260416665 78.94965277777777)"/><use xlink:href="#x" transform="matrix(1,0,0,1,2683.919271,-128) translate(17.814570312499974 106.47916666666667)"/><use xlink:href="#y" transform="matrix(1,0,0,1,2683.919271,-128) translate(81.9766796875 106.47916666666667)"/><use xlink:href="#z" transform="matrix(1,0,0,1,2683.919271,-128) translate(115.48384114583334 106.47916666666667)"/><use xlink:href="#A" transform="matrix(1,0,0,1,2683.919271,-128) translate(169.21886718750002 106.47916666666667)"/><use xlink:href="#B" transform="matrix(1,0,0,1,2683.919271,-128) translate(223.22472656250002 106.47916666666667)"/><use xlink:href="#C" transform="matrix(1,0,0,1,2683.919271,-128) translate(248.73384114583337 106.47916666666667)"/><use xlink:href="#D" transform="matrix(1,0,0,1,2683.919271,-128) translate(121.96268229166667 131.64635416666667)"/><path d="M3451.92 216.5a6 6 0 0 1 6-6h285.7a6 6 0 0 1 6 6V405a6 6 0 0 1-6 6h-285.7a6 6 0 0 1-6-6z" stroke="#ad954e" stroke-width="2" fill="#f4d36f"/><use xlink:href="#m" transform="matrix(1,0,0,1,3463.919271,222.51171526256107) translate(36.332682291666686 64.39496527777777)"/><use xlink:href="#E" transform="matrix(1,0,0,1,3463.919271,222.51171526256107) translate(73.18164062500001 64.39496527777777)"/><use xlink:href="#F" transform="matrix(1,0,0,1,3463.919271,222.51171526256107) translate(150.22157118055554 64.39496527777777)"/><use xlink:href="#G" transform="matrix(1,0,0,1,3463.919271,222.51171526256107) translate(47.563151041666686 96.66059027777777)"/><use xlink:href="#H" transform="matrix(1,0,0,1,3463.919271,222.51171526256107) translate(15.198242187499986 128.92621527777777)"/><use xlink:href="#I" transform="matrix(1,0,0,1,3463.919271,222.51171526256107) translate(184.84733072916669 128.92621527777777)"/><path d="M1570 276.3V154.03a6 6 0 0 1 6-6h152.38" stroke="#3a414a" stroke-width="3" fill="none"/><path d="M1571.47 277.8h-2.94v-1.55h2.94z" stroke="#3a414a" stroke-width=".05" fill="#3a414a"/><path d="M1744.15 148.04l-14.27 4.63v-9.27z" stroke="#3a414a" stroke-width="3" fill="#3a414a"/><path d="M1571.47 54.44l.07.77.16.7.27.65.37.6.46.55.54.46.6.37.66.27.7.16.76.06h171.44v2.95h-171.56l-1.1-.08-1.15-.3-1.1-.44-1-.6-.9-.77-.75-.9-.6-1-.46-1.1-.3-1.13-.07-1.1v-9.3h2.94zm0-30.15l-2.94-.02V5.6h2.94z" stroke="#3a414a" stroke-width=".05" fill="#3a414a"/><path d="M1571.47 5.64h-2.94V4.1h2.94z" fill="#3a414a"/><path stroke="#3a414a" stroke-width=".05" fill="#3a414a"/><path d="M1749 61.97h-1.54v-2.95h1.54z" fill="#3a414a"/><path stroke="#3a414a" stroke-width=".05" fill="#3a414a"/><use xlink:href="#J" transform="matrix(1,0,0,1,1502.2408854166665,24.284658638955477) translate(0 16.791666666666668)"/><use xlink:href="#K" transform="matrix(1,0,0,1,1502.2408854166665,24.284658638955477) translate(79.54882812500001 16.791666666666668)"/><path d="M3193.4 397.06l.05.77.17.7.27.64.36.6.46.55.54.46.6.37.66.27.7.16.76.06h16.04v2.95h-16.16l-1.1-.1-1.15-.27-1.08-.45-1-.6-.9-.77-.75-.88-.6-1-.46-1.1-.27-1.13-.1-1.12v-18.4h2.96zm236.9 4.58v2.95h-132.25v-2.96z" stroke="#3a414a" stroke-width=".05" fill="#3a414a"/><path d="M3193.4 378.82h-2.96v-1.54h2.95z" fill="#3a414a"/><path stroke="#3a414a" stroke-width=".05" fill="#3a414a"/><path d="M3446.07 403.12l-14.27 4.63v-9.27z" fill="#3a414a"/><path d="M3450.84 403.12l-20.52 6.66v-13.33zm-17.57 2.6l8.02-2.6-8.03-2.6z" stroke="#3a414a" stroke-width=".05" fill="#3a414a"/><use xlink:href="#L" transform="matrix(1,0,0,1,3214.023422274926,392.63214196671356) translate(0 16.791666666666668)"/><use xlink:href="#r" transform="matrix(1,0,0,1,3214.023422274926,392.63214196671356) translate(44.64518229166667 16.791666666666668)"/><path d="M3404.98 98.53l1.1.08 1.15.3 1.1.44 1 .6.88.77.77.9.6 1 .46 1.1.28 1.13.1 1.1v129.33l.05.77.17.7.27.64.36.6.46.55.54.46.6.37.66.27.7.16.76.06h13.32v2.95h-13.44l-1.1-.1-1.15-.27-1.08-.45-1-.6-.9-.77-.75-.88-.6-1-.46-1.1-.27-1.13-.1-1.12V106.06l-.05-.77-.16-.7-.27-.65-.37-.6-.46-.55-.54-.46-.6-.37-.66-.27-.7-.17-.76-.06h-479.13v-2.94zm-571.53-3.82l.17.7.27.65.36.6.46.55.54.46.6.37.66.27.7.17.76.06h12.8v2.94h-12.92l-1.1-.08-1.15-.3-1.08-.44-1-.6-.9-.77-.75-.9-.6-1-.46-1.1-.27-1.13-.1-1.1v-46.8h2.96v46.67z" stroke="#3a414a" stroke-width=".05" fill="#3a414a"/><path d="M2833.4 47.3h-2.96v-1.53h2.95z" fill="#3a414a"/><path stroke="#3a414a" stroke-width=".05" fill="#3a414a"/><path d="M3446.07 241.32l-14.27 4.64v-9.28z" fill="#3a414a"/><path d="M3450.84 241.32l-20.52 6.67v-13.34zm-17.57 2.6l8.02-2.6-8.03-2.6z" stroke="#3a414a" stroke-width=".05" fill="#3a414a"/><use xlink:href="#M" transform="matrix(1,0,0,1,2850.7879331339254,89.513671875) translate(0 16.791666666666668)"/><use xlink:href="#N" transform="matrix(1,0,0,1,2850.7879331339254,89.513671875) translate(59.81184895833334 16.791666666666668)"/><path d="M2138.58 215.43a6 6 0 0 1 6-6h141.77a6 6 0 0 1 6 6V344.2a6 6 0 0 1-6 6h-141.77a6 6 0 0 1-6-6z" stroke="#6394b0" stroke-width="2" fill="#c3f7c8"/><use xlink:href="#O" transform="matrix(1,0,0,1,2150.580729166667,221.42800151777828) translate(28.102213541666664 34.32465277777778)"/><use xlink:href="#P" transform="matrix(1,0,0,1,2150.580729166667,221.42800151777828) translate(27.966579861111114 66.59027777777777)"/><use xlink:href="#Q" transform="matrix(1,0,0,1,2150.580729166667,221.42800151777828) translate(11.961805555555557 98.85590277777777)"/><path d="M2138.58 6a6 6 0 0 1 6-6h175.32a6 6 0 0 1 6 6v128.78a6 6 0 0 1-6 6h-175.32a6 6 0 0 1-6-6z" stroke="#6394b0" stroke-width="2" fill="#c3f7c8"/><use xlink:href="#R" transform="matrix(1,0,0,1,2150.580729166667,11.999999999999986) translate(8.340060763888886 34.32465277777778)"/><use xlink:href="#S" transform="matrix(1,0,0,1,2150.580729166667,11.999999999999986) translate(68.181640625 34.32465277777778)"/><use xlink:href="#T" transform="matrix(1,0,0,1,2150.580729166667,11.999999999999986) translate(133.43771701388889 34.32465277777778)"/><use xlink:href="#U" transform="matrix(1,0,0,1,2150.580729166667,11.999999999999986) translate(13.586371527777771 66.59027777777777)"/><use xlink:href="#V" transform="matrix(1,0,0,1,2150.580729166667,11.999999999999986) translate(67.43836805555554 66.59027777777777)"/><use xlink:href="#W" transform="matrix(1,0,0,1,2150.580729166667,11.999999999999986) translate(80.09027777777777 66.59027777777777)"/><use xlink:href="#X" transform="matrix(1,0,0,1,2150.580729166667,11.999999999999986) translate(144.01171875 66.59027777777777)"/><use xlink:href="#Y" transform="matrix(1,0,0,1,2150.580729166667,11.999999999999986) translate(22.402560763888886 98.85590277777777)"/><use xlink:href="#Z" transform="matrix(1,0,0,1,2150.580729166667,11.999999999999986) translate(99.236328125 98.85590277777777)"/><path d="M2378.58 6a6 6 0 0 1 6-6h162.86a6 6 0 0 1 6 6v119.42a6 6 0 0 1-6 6h-162.86a6 6 0 0 1-6-6z" stroke="#6394b0" stroke-width="2" fill="#c3f7c8"/><use xlink:href="#aa" transform="matrix(1,0,0,1,2390.580729166667,12.000000000000014) translate(3.3374565972222285 45.99652777777778)"/><use xlink:href="#ab" transform="matrix(1,0,0,1,2390.580729166667,12.000000000000014) translate(83.3830295138889 45.99652777777778)"/><use xlink:href="#ac" transform="matrix(1,0,0,1,2390.580729166667,12.000000000000014) translate(8.789930555555571 78.26215277777777)"/><path d="M2092.12 313.6v2.96h-121.9v-2.94zm-209.23-9h-2.96V199.63h2.95z" stroke="#3a414a" stroke-width=".05" fill="#3a414a"/><path d="M1882.9 199.67h-2.96v-1.54h2.95z" fill="#3a414a"/><path stroke="#3a414a" stroke-width=".05" fill="#3a414a"/><path d="M2107.9 315.1l-14.28 4.63v-9.28z" fill="#3a414a"/><path d="M2112.66 315.1l-20.5 6.66v-13.33zm-17.56 2.6l8-2.6-8-2.62z" stroke="#3a414a" stroke-width=".05" fill="#3a414a"/><use xlink:href="#ad" transform="matrix(1,0,0,1,1833.4804480704531,304.6038050137224) translate(0 16.791666666666668)"/><use xlink:href="#ae" transform="matrix(1,0,0,1,1833.4804480704531,304.6038050137224) translate(61.225260416666664 16.791666666666668)"/><path d="M2011.38 60.5h105.58M2011.4 60.5h-4.53" stroke="#3a414a" stroke-width="3" fill="none"/><path d="M2132.73 60.5l-14.27 4.64v-9.27z" stroke="#3a414a" stroke-width="3" fill="#3a414a"/><path d="M2466-2.5v-39.1a6 6 0 0 1 6-6h180.17" stroke="#3a414a" stroke-width="3" fill="none"/><path d="M2467.5-1h-2.96v-1.54h2.95z" stroke="#3a414a" stroke-width=".05" fill="#3a414a"/><path d="M2667.94-47.6L2653.67-43v-9.27z" stroke="#3a414a" stroke-width="3" fill="#3a414a"/><path d="M2232.72 175.76l.07.9.2.83.32.8.45.73.57.66.65.55.73.45.8.33.85.2.88.08h67.23v.96h-67.28l-1-.08-.98-.24-.94-.4-.87-.52-.77-.66-.66-.77-.53-.88-.4-.94-.23-1-.07-.98v-33.52h.95zm233.77.04l-.1 1-.23.98-.4.94-.52.87-.66.76-.78.66-.87.53-.94.4-.97.23-1 .08h-57.9v-.95H2460l.88-.06.84-.2.8-.34.74-.45.66-.56.56-.67.45-.74.34-.8.2-.85.07-.9V148.8h.95z" stroke="#3a414a" stroke-width=".05" fill="#3a414a"/><path d="M2232.72 142.3h-.95v-.52h.95z" fill="#3a414a"/><path stroke="#3a414a" stroke-width=".05" fill="#3a414a"/><path d="M2470.65 148.3h-9.27l4.63-14.26z" fill="#3a414a"/><path d="M2471.3 148.78h-10.58l5.3-16.28zm-9.27-.95h7.96l-4-12.26z" stroke="#3a414a" stroke-width=".05" fill="#3a414a"/><g><use xlink:href="#af" transform="matrix(1,0,0,1,2305.489007381141,160.80812174999994) translate(0 16.791666666666668)"/><use xlink:href="#ag" transform="matrix(1,0,0,1,2305.489007381141,160.80812174999994) translate(0 37.76432291666667)"/></g><path d="M3451.92-131.5a6 6 0 0 1 6-6h285.7a6 6 0 0 1 6 6v188a6 6 0 0 1-6 6h-285.7a6 6 0 0 1-6-6z" stroke="#ad954e" stroke-width="2" fill="#f4d36f"/><g><use xlink:href="#ah" transform="matrix(1,0,0,1,3463.919271,-125.5) translate(0 69.30902777777777)"/><use xlink:href="#ai" transform="matrix(1,0,0,1,3463.919271,-125.5) translate(128.09244791666666 69.30902777777777)"/><use xlink:href="#aj" transform="matrix(1,0,0,1,3463.919271,-125.5) translate(227.00737847222223 69.30902777777777)"/><use xlink:href="#ak" transform="matrix(1,0,0,1,3463.919271,-125.5) translate(0 96.19704861111111)"/><use xlink:href="#al" transform="matrix(1,0,0,1,3463.919271,-125.5) translate(102.75607638888889 96.19704861111111)"/><use xlink:href="#am" transform="matrix(1,0,0,1,3463.919271,-125.5) translate(169.42274305555554 96.19704861111111)"/><use xlink:href="#an" transform="matrix(1,0,0,1,3463.919271,-125.5) translate(0 123.08506944444446)"/><use xlink:href="#ao" transform="matrix(1,0,0,1,3463.919271,-125.5) translate(45.59461805555556 123.08506944444446)"/></g><path d="M3602.24 208h-2.95v-35.84h2.94zm0-107.15h-2.95V84.12h2.94z" stroke="#3a414a" stroke-width=".05" fill="#3a414a"/><path d="M3602.24 209.5h-2.95v-1.53h2.94z" fill="#3a414a"/><path stroke="#3a414a" stroke-width=".05" fill="#3a414a"/><path d="M3605.4 82.62h-9.27l4.64-14.27z" fill="#3a414a"/><path d="M3607.43 84.1h-13.33l6.67-20.52zm-9.27-2.95h5.2l-2.6-8.02z" stroke="#3a414a" stroke-width=".05" fill="#3a414a"/><g><use xlink:href="#ap" transform="matrix(1,0,0,1,3569.4486763819446,100.85234200628052) translate(0 16.791666666666668)"/><use xlink:href="#aq" transform="matrix(1,0,0,1,3569.4486763819446,100.85234200628052) translate(0 41.95885416666667)"/><use xlink:href="#ar" transform="matrix(1,0,0,1,3569.4486763819446,100.85234200628052) translate(0 67.12604166666667)"/></g><path d="M2378.58 215.43a6 6 0 0 1 6-6h162.86a6 6 0 0 1 6 6v119.42a6 6 0 0 1-6 6h-162.86a6 6 0 0 1-6-6z" stroke="#6394b0" stroke-width="2" fill="#c3f7c8"/><g><use xlink:href="#as" transform="matrix(1,0,0,1,2390.580729166667,221.42800151777826) translate(9.386718750000014 29.96527777777778)"/><use xlink:href="#at" transform="matrix(1,0,0,1,2390.580729166667,221.42800151777826) translate(131.39192708333331 29.96527777777778)"/><use xlink:href="#au" transform="matrix(1,0,0,1,2390.580729166667,221.42800151777826) translate(31.174913194444443 62.23090277777778)"/><use xlink:href="#at" transform="matrix(1,0,0,1,2390.580729166667,221.42800151777826) translate(109.60373263888889 62.23090277777778)"/><use xlink:href="#av" transform="matrix(1,0,0,1,2390.580729166667,221.42800151777826) translate(40.34917534722223 94.49652777777777)"/></g><path d="M3553.24-194a6 6 0 0 1 6-6h83.06a6 6 0 0 1 6 6v24.9a6 6 0 0 1-6 6h-83.06a6 6 0 0 1-6-6z" fill="none"/><g><use xlink:href="#aw" transform="matrix(1,0,0,1,3558.2391407916666,-195) translate(0 21.58376736111111)"/></g><path d="M3140-194a6 6 0 0 1 6-6h101.75a6 6 0 0 1 6 6v24.9a6 6 0 0 1-6 6H3146a6 6 0 0 1-6-6z" fill="none"/><g><use xlink:href="#ax" transform="matrix(1,0,0,1,3145,-195) translate(0 21.58376736111111)"/></g><path d="M2724.95-194a6 6 0 0 1 6-6h201.94a6 6 0 0 1 6 6v24.9a6 6 0 0 1-6 6h-201.95a6 6 0 0 1-6-6z" fill="none"/><g><use xlink:href="#ay" transform="matrix(1,0,0,1,2729.9448699583336,-195) translate(0 21.58376736111111)"/><use xlink:href="#az" transform="matrix(1,0,0,1,2729.9448699583336,-195) translate(134.93923611111111 21.58376736111111)"/></g><g><path d="M1700.5-159.5v659" stroke="#000" stroke-linecap="round" fill="none"/></g><path d="M2288.45-194a6 6 0 0 1 6-6h104.42a6 6 0 0 1 6 6v24.9a6 6 0 0 1-6 6h-104.42a6 6 0 0 1-6-6z" fill="none"/><g><use xlink:href="#aA" transform="matrix(1,0,0,1,2293.450077958333,-195) translate(0 21.58376736111111)"/></g><path d="M2346.66 381.7v15.42a6 6 0 0 0 6 6h778.77a5.22 5.22 0 0 0 5.22-5.22" stroke="#3a414a" stroke-width="3" fill="none"/><path d="M2348.14 381.74h-2.95v-1.54h2.94z" stroke="#3a414a" stroke-width=".05" fill="#3a414a"/><path d="M3136.65 382.13l4.64 14.27H3132z" stroke="#3a414a" stroke-width="3" fill="#3a414a"/><path d="M1814.18-194a6 6 0 0 1 6-6h119.64a6 6 0 0 1 6 6v24.9a6 6 0 0 1-6 6h-119.64a6 6 0 0 1-6-6z" fill="none"/><g><use xlink:href="#aB" transform="matrix(1,0,0,1,1819.1768576388888,-195) translate(0 21.58376736111111)"/></g><path d="M1570.47 433.98l.07.88.2.85.34.8.45.75.56.66.65.57.74.45.8.33.84.2.88.07h2018.73l.88-.06.84-.2.8-.34.74-.45.67-.56.57-.65.45-.74.32-.8.2-.84.07-.88v-5.6h.94v5.64l-.07 1-.24.98-.4.94-.52.87-.65.78-.78.66-.86.53-.93.4-1 .23-.98.08H1575.97l-1-.08-.98-.24-.94-.4-.87-.52-.78-.66-.66-.77-.53-.86-.4-.94-.23-1-.07-.98v-7.53h.94zm0-28.46h-.94V382.8h.94z" stroke="#3a414a" stroke-width=".05" fill="#3a414a"/><path d="M1570.47 382.8h-.94v-.5h.94z" fill="#3a414a"/><path stroke="#3a414a" stroke-width=".05" fill="#3a414a"/><path d="M3605.4 427.9h-9.27l4.64-14.28z" fill="#3a414a"/><path d="M3606.06 428.36h-10.58l5.3-16.28zm-9.27-.95h7.95l-3.98-12.24z" stroke="#3a414a" stroke-width=".05" fill="#3a414a"/><g><use xlink:href="#aC" transform="matrix(1,0,0,1,1503.8193359375,405.5192607305433) translate(0 16.791666666666668)"/><use xlink:href="#aD" transform="matrix(1,0,0,1,1503.8193359375,405.5192607305433) translate(69.35026041666667 16.791666666666668)"/><use xlink:href="#aE" transform="matrix(1,0,0,1,1503.8193359375,405.5192607305433) translate(85.693359375 16.791666666666668)"/></g><g><path d="M2040.1-159.5v659" stroke="#000" stroke-linecap="round" fill="none"/></g><g><path d="M2636.07-159.5v659" stroke="#000" stroke-linecap="round" fill="none"/></g><g><path d="M3028.83-159.5v659" stroke="#000" stroke-linecap="round" fill="none"/></g><g><path d="M3379.66-159.5v659" stroke="#000" stroke-linecap="round" fill="none"/></g><path d="M1448.38 331.52h-2.32l-.77.06-.7.17-.65.27-.6.37-.55.45-.46.54-.37.6-.27.65-.16.7-.07.75v127.84l.07.77.16.7.27.65.37.6.46.55.54.46.6.37.66.27.7.16.76.06H3505.1v2.96H1445.94l-1.1-.1-1.15-.27-1.1-.44-1-.6-.9-.77-.75-.9-.6-1-.46-1.1-.3-1.13-.07-1.1V335.98l.08-1.12.3-1.14.44-1.1.6-1 .77-.88.9-.76 1-.62 1.1-.45 1.13-.27 1.1-.1h2.45zm2336.8-370.4l1.13.27 1.1.44 1 .6.9.77.75.9.6 1 .46 1.1.3 1.13.07 1.1v495.63l-.08 1.1-.3 1.15-.44 1.1-.6 1-.77.9-.9.75-1 .6-1.1.46-1.13.3-1.1.08h-46.53v-2.96h46.4l.77-.06.7-.16.65-.27.6-.37.55-.46.46-.54.37-.6.27-.66.16-.7.07-.76V-31.44l-.07-.77-.16-.7-.27-.65-.37-.6-.46-.55-.54-.46-.6-.37-.66-.27-.7-.17-.76-.05h-31.82v-2.95h31.94z" stroke="#3a414a" stroke-width=".05" fill="#3a414a"/><path d="M3752.16-36.02h-1.54v-2.95h1.54z" fill="#3a414a"/><path stroke="#3a414a" stroke-width=".05" fill="#3a414a"/><path d="M1464.15 330.05l-14.27 4.63v-9.27z" fill="#3a414a"/><path d="M1468.92 330.05l-20.52 6.66V323.4zm-17.57 2.6l8.02-2.6-8-2.6z" stroke="#3a414a" stroke-width=".05" fill="#3a414a"/><g><use xlink:href="#aF" transform="matrix(1,0,0,1,3505.1038502419115,459.513671875) translate(0 16.791666666666668)"/><use xlink:href="#aG" transform="matrix(1,0,0,1,3505.1038502419115,459.513671875) translate(82.12174479166667 16.791666666666668)"/><use xlink:href="#aH" transform="matrix(1,0,0,1,3505.1038502419115,459.513671875) translate(121.47721354166669 16.791666666666668)"/></g><path d="M1750 6a6 6 0 0 1 6-6h250.84a6 6 0 0 1 6 6v185.13a6 6 0 0 1-6 6H1756a6 6 0 0 1-6-6z" stroke="#a0a8b9" stroke-width="2" fill="#dedeff"/><g><use xlink:href="#aI" transform="matrix(1,0,0,1,1755,5.000000000000014) translate(37.5785590277778 85.78559027777777)"/><use xlink:href="#aJ" transform="matrix(1,0,0,1,1755,5.000000000000014) translate(116.63671875000001 85.78559027777777)"/><use xlink:href="#aK" transform="matrix(1,0,0,1,1755,5.000000000000014) translate(137.58940972222223 85.78559027777777)"/><use xlink:href="#aL" transform="matrix(1,0,0,1,1755,5.000000000000014) translate(65.68185763888889 118.05121527777777)"/></g><path d="M1750.5 60.5h5.08m5.08 0h10.15m5.1 0h10.15m5.08 0h10.15m5.08 0h10.16m5.08 0h10.16m5.07 0H1847m5.07 0h10.15m5.08 0h10.16m5.08 0h10.16m5.08 0h10.15m5.08 0h10.17m5.07 0h10.16m5.08 0h10.16m5.08 0h10.15m5.08 0h10.16m5.1 0h10.14m5.08 0h5.08" stroke="#000" stroke-linecap="round" fill="none"/><defs><path fill="#fff" d="M783 20c-382 0-661-292-661-764 0-473 279-766 661-766 302 0 548 182 601 489h-190c-42-204-217-313-411-313-268 0-476 208-476 590 0 381 209 588 476 588 195 0 369-110 411-313h190c-52 303-296 489-601 489" id="aM"/><path fill="#fff" d="M784 20c-382 0-662-292-662-764 0-473 280-766 662-766s660 293 660 766c0 472-278 764-660 764zm0-176c266 0 475-207 475-588 0-383-209-590-475-590-268 0-477 208-477 590 0 380 209 588 477 588" id="aN"/><path fill="#fff" d="M180 0v-1490h224l606 953c40 63 108 177 176 312-27-437-7-821-13-1265h190V0h-226C860-448 622-778 356-1262c27 476 11 792 15 1262H180" id="aO"/><path fill="#fff" d="M657 26c-323 0-524-166-541-416h195c15 169 171 246 346 246 202 0 356-106 356-265 5-203-294-238-475-293-239-73-380-191-380-389 0-252 224-419 512-419 294 0 499 171 508 396H992c-17-145-151-228-328-228-193 0-321 102-321 242 0 156 175 211 284 241l149 41c160 44 422 134 422 412 0 244-197 432-541 432" id="aP"/><path fill="#fff" d="M98-1322v-168h1126v168H757V0H567v-1322H98" id="aQ"/><path fill="#fff" d="M180 0v-1490h510c348 0 508 194 508 460 0 198-88 351-276 417L1256 0h-220L726-579c-117 2-238 0-356 1V0H180zm190-747h312c235 0 327-108 327-283 0-177-92-293-329-293H370v576" id="aR"/><path fill="#fff" d="M763 24c-353 0-583-224-583-531v-983h190v968c0 214 149 370 393 370 243 0 391-156 391-370v-968h190v983c0 307-230 531-581 531" id="aS"/><g id="a"><use transform="matrix(0.008173828125000001,0,0,0.008173828125000001,0,0)" xlink:href="#aM"/><use transform="matrix(0.008173828125000001,0,0,0.008173828125000001,12.228046875000002,0)" xlink:href="#aN"/><use transform="matrix(0.008173828125000001,0,0,0.008173828125000001,25.028261718750002,0)" xlink:href="#aO"/><use transform="matrix(0.008173828125000001,0,0,0.008173828125000001,37.640478515625006,0)" xlink:href="#aP"/><use transform="matrix(0.008173828125000001,0,0,0.008173828125000001,48.380888671875006,0)" xlink:href="#aQ"/><use transform="matrix(0.008173828125000001,0,0,0.008173828125000001,59.186689453125005,0)" xlink:href="#aR"/><use transform="matrix(0.008173828125000001,0,0,0.008173828125000001,69.959794921875,0)" xlink:href="#aS"/><use transform="matrix(0.008173828125000001,0,0,0.008173828125000001,82.416708984375,0)" xlink:href="#aM"/><use transform="matrix(0.008173828125000001,0,0,0.008173828125000001,94.64475585937501,0)" xlink:href="#aQ"/></g><path fill="#fff" d="M52 0l541-1490h220L1361 0h-200l-149-416H398L254 0H52zm404-582h497c-103-290-145-390-251-756-108 377-145 460-246 756" id="aT"/><path fill="#fff" d="M180 0v-1490h190v644h782v-644h190V0h-190v-678H370V0H180" id="aU"/><path fill="#fff" d="M370-1490V0H180v-1490h190" id="aV"/><path fill="#fff" d="M180 0v-1490h908v168H370v486h669v168H370v500h727V0H180" id="aW"/><g id="b"><use transform="matrix(0.008173828125000001,0,0,0.008173828125000001,0,0)" xlink:href="#aT"/><use transform="matrix(0.008173828125000001,0,0,0.008173828125000001,11.549619140625001,0)" xlink:href="#aR"/><use transform="matrix(0.008173828125000001,0,0,0.008173828125000001,22.322724609375,0)" xlink:href="#aM"/><use transform="matrix(0.008173828125000001,0,0,0.008173828125000001,34.550771484375005,0)" xlink:href="#aU"/><use transform="matrix(0.008173828125000001,0,0,0.008173828125000001,46.991337890625005,0)" xlink:href="#aV"/><use transform="matrix(0.008173828125000001,0,0,0.008173828125000001,51.486943359375005,0)" xlink:href="#aQ"/><use transform="matrix(0.008173828125000001,0,0,0.008173828125000001,62.292744140625004,0)" xlink:href="#aW"/><use transform="matrix(0.008173828125000001,0,0,0.008173828125000001,72.3547265625,0)" xlink:href="#aM"/><use transform="matrix(0.008173828125000001,0,0,0.008173828125000001,84.58277343750001,0)" xlink:href="#aQ"/><use transform="matrix(0.008173828125000001,0,0,0.008173828125000001,95.38857421875001,0)" xlink:href="#aS"/><use transform="matrix(0.008173828125000001,0,0,0.008173828125000001,107.84548828125001,0)" xlink:href="#aR"/><use transform="matrix(0.008173828125000001,0,0,0.008173828125000001,118.61859375000002,0)" xlink:href="#aW"/></g><path d="M180 0v-1490h224l606 953c40 63 108 177 176 312-27-437-7-821-13-1265h190V0h-226C860-448 622-778 356-1262c27 476 11 792 15 1262H180" id="aX"/><path d="M784 20c-382 0-662-292-662-764 0-473 280-766 662-766s660 293 660 766c0 472-278 764-660 764zm0-176c266 0 475-207 475-588 0-383-209-590-475-590-268 0-477 208-477 590 0 380 209 588 477 588" id="aY"/><path d="M645 0H180v-1490h484c435 0 692 280 692 742 0 466-257 748-711 748zM370-168h263c363 0 539-218 539-580 0-358-176-574-521-574H370v1154" id="aZ"/><path d="M180 0v-1490h908v168H370v486h669v168H370v500h727V0H180" id="ba"/><g id="c"><use transform="matrix(0.008173828125000001,0,0,0.008173828125000001,0,0)" xlink:href="#aX"/><use transform="matrix(0.008173828125000001,0,0,0.008173828125000001,12.612216796875002,0)" xlink:href="#aY"/><use transform="matrix(0.008173828125000001,0,0,0.008173828125000001,25.412431640625,0)" xlink:href="#aZ"/><use transform="matrix(0.008173828125000001,0,0,0.008173828125000001,37.493349609375,0)" xlink:href="#ba"/></g><path d="M593-100v-404H195v-159h398v-403h169v403h398v159H762v404H593" id="bb"/><use transform="matrix(0.008173828125000001,0,0,0.008173828125000001,0,0)" xlink:href="#bb" id="d"/><path d="M57 0l534-763-501-727h220c122 187 296 416 391 605 94-191 272-419 396-605h215L811-770 1340 0h-219C986-204 811-426 699-640 588-430 407-202 273 0H57" id="bc"/><path d="M180 0v-1490h510c348 0 508 209 508 474 0 266-160 477-507 477H370V0H180zm190-706h312c236 0 327-133 327-310 0-176-91-307-329-307H370v617" id="bd"/><path d="M180 0v-1490h510c348 0 508 194 508 460 0 198-88 351-276 417L1256 0h-220L726-579c-117 2-238 0-356 1V0H180zm190-747h312c235 0 327-108 327-283 0-177-92-293-329-293H370v576" id="be"/><path d="M657 26c-323 0-524-166-541-416h195c15 169 171 246 346 246 202 0 356-106 356-265 5-203-294-238-475-293-239-73-380-191-380-389 0-252 224-419 512-419 294 0 499 171 508 396H992c-17-145-151-228-328-228-193 0-321 102-321 242 0 156 175 211 284 241l149 41c160 44 422 134 422 412 0 244-197 432-541 432" id="bf"/><g id="e"><use transform="matrix(0.008173828125000001,0,0,0.008173828125000001,0,0)" xlink:href="#ba"/><use transform="matrix(0.008173828125000001,0,0,0.008173828125000001,10.061982421875001,0)" xlink:href="#bc"/><use transform="matrix(0.008173828125000001,0,0,0.008173828125000001,21.4808203125,0)" xlink:href="#bd"/><use transform="matrix(0.008173828125000001,0,0,0.008173828125000001,32.1721875,0)" xlink:href="#be"/><use transform="matrix(0.008173828125000001,0,0,0.008173828125000001,42.94529296875,0)" xlink:href="#ba"/><use transform="matrix(0.008173828125000001,0,0,0.008173828125000001,53.007275390625004,0)" xlink:href="#bf"/><use transform="matrix(0.008173828125000001,0,0,0.008173828125000001,63.747685546875005,0)" xlink:href="#bf"/></g><path d="M180 0v-1490h901v168H370v510h643v168H370V0H180" id="bg"/><path d="M763 24c-353 0-583-224-583-531v-983h190v968c0 214 149 370 393 370 243 0 391-156 391-370v-968h190v983c0 307-230 531-581 531" id="bh"/><g id="f"><use transform="matrix(0.010850694444444444,0,0,0.010850694444444444,0,0)" xlink:href="#bg"/><use transform="matrix(0.010850694444444444,0,0,0.010850694444444444,13.118489583333332,0)" xlink:href="#bh"/><use transform="matrix(0.010850694444444444,0,0,0.010850694444444444,29.654947916666664,0)" xlink:href="#aX"/><use transform="matrix(0.010850694444444444,0,0,0.010850694444444444,46.39756944444444,0)" xlink:href="#aZ"/><use transform="matrix(0.010850694444444444,0,0,0.010850694444444444,62.43489583333333,0)" xlink:href="#ba"/><use transform="matrix(0.010850694444444444,0,0,0.010850694444444444,75.79210069444444,0)" xlink:href="#be"/></g><path d="M458 0L52-1490h194c108 439 233 855 324 1313 92-459 221-873 331-1313h216c110 438 234 854 330 1307 92-455 216-869 323-1307h196L1558 0h-221l-256-944c-26-95-50-200-73-331-22 122-44 223-73 331L680 0H458" id="bi"/><path d="M471 26C259 26 90-98 90-318c0-256 228-303 435-329 202-27 287-16 287-108 0-139-79-219-234-219-161 0-248 86-283 164l-173-57c86-203 278-265 451-265 150 0 419 46 419 395V0H815v-152h-12C765-73 660 26 471 26zm31-159c199 0 310-134 310-271v-155c-30 35-226 55-295 64-131 17-246 59-246 186 0 116 97 176 231 176" id="bj"/><path d="M338-1490V0H158v-1490h180" id="bk"/><path d="M628 24c-324 0-524-230-524-574 0-343 198-582 503-582 237 0 487 146 487 559v75H286c9 234 145 362 343 362 132 0 231-58 273-172l174 48C1024-91 857 24 628 24zM287-650h624c-17-190-120-322-304-322-192 0-309 151-320 322" id="bl"/><path d="M598-1118v154H368v674c0 100 37 144 132 144 23 0 62-6 92-12L629-6c-37 13-88 20-134 20-193 0-307-107-307-290v-688H20v-154h168v-266h180v266h230" id="bm"/><g id="h"><use transform="matrix(0.010850694444444444,0,0,0.010850694444444444,0,0)" xlink:href="#bi"/><use transform="matrix(0.010850694444444444,0,0,0.010850694444444444,20.768229166666668,0)" xlink:href="#bj"/><use transform="matrix(0.010850694444444444,0,0,0.010850694444444444,33.24652777777778,0)" xlink:href="#bk"/><use transform="matrix(0.010850694444444444,0,0,0.010850694444444444,38.62847222222222,0)" xlink:href="#bk"/><use transform="matrix(0.010850694444444444,0,0,0.010850694444444444,44.010416666666664,0)" xlink:href="#bl"/><use transform="matrix(0.010850694444444444,0,0,0.010850694444444444,56.96614583333333,0)" xlink:href="#bm"/></g><path d="M409 0L70-1118h191c89 329 165 560 243 925 75-353 154-601 240-925h192c85 325 161 564 235 922 77-354 157-598 244-922h191L1267 0h-179c-86-307-176-590-250-913C763-588 675-308 588 0H409" id="bn"/><path d="M338-670V0H158v-1118h173l1 207c72-158 192-221 342-221 226 0 378 139 378 422V0H872v-695c0-172-96-275-252-275-161 0-282 109-282 300" id="bo"/><path d="M158 0v-1118h174v172h12c41-113 157-188 290-188 26 0 70 2 91 3v181c-11-2-60-10-108-10-161 0-279 109-279 260V0H158" id="bp"/><g id="i"><use transform="matrix(0.010850694444444444,0,0,0.010850694444444444,0,0)" xlink:href="#aY"/><use transform="matrix(0.010850694444444444,0,0,0.010850694444444444,16.9921875,0)" xlink:href="#bn"/><use transform="matrix(0.010850694444444444,0,0,0.010850694444444444,35.177951388888886,0)" xlink:href="#bo"/><use transform="matrix(0.010850694444444444,0,0,0.010850694444444444,48.307291666666664,0)" xlink:href="#bl"/><use transform="matrix(0.010850694444444444,0,0,0.010850694444444444,61.26302083333333,0)" xlink:href="#bp"/></g><path d="M180 0v-1490h528c311 0 458 177 458 395 0 191-114 278-244 313v14c139 9 302 137 302 371 0 225-148 397-499 397H180zm190-168h350c232 0 321-102 321-231 0-149-120-277-311-277H370v508zm0-668h328c160 0 286-101 286-255 0-129-87-231-280-231H370v486" id="bq"/><path d="M370-1490V0H180v-1490h190" id="br"/><path d="M180 0v-1490h190v1322h690V0H180" id="bs"/><g id="j"><use transform="matrix(0.010850694444444444,0,0,0.010850694444444444,0,0)" xlink:href="#bq"/><use transform="matrix(0.010850694444444444,0,0,0.010850694444444444,14.539930555555555,0)" xlink:href="#bh"/><use transform="matrix(0.010850694444444444,0,0,0.010850694444444444,31.07638888888889,0)" xlink:href="#br"/><use transform="matrix(0.010850694444444444,0,0,0.010850694444444444,37.04427083333333,0)" xlink:href="#bs"/><use transform="matrix(0.010850694444444444,0,0,0.010850694444444444,49.609374999999986,0)" xlink:href="#aZ"/><use transform="matrix(0.010850694444444444,0,0,0.010850694444444444,65.64670138888889,0)" xlink:href="#ba"/><use transform="matrix(0.010850694444444444,0,0,0.010850694444444444,79.00390625,0)" xlink:href="#be"/></g><path d="M537 14c-226 0-379-139-379-422v-710h180v695c0 172 97 275 253 275 160 0 281-109 281-300v-670h181V0H879v-209C806-46 684 14 537 14" id="bt"/><path d="M677 24c-213 0-288-135-325-197h-20V0H158v-1490h180v551h14c37-59 106-193 324-193 279 0 474 222 474 576 0 356-194 580-473 580zm-27-161c209 0 317-186 317-421 0-232-105-413-317-413-206 0-314 166-314 413 0 249 111 421 314 421" id="bu"/><path d="M158 0v-1118h175l1 205c55-151 181-225 313-225 147 0 245 90 285 228 53-141 190-228 352-228 194 0 352 125 352 384V0h-181v-749c0-161-105-225-225-225-151 0-243 103-243 244V0H807v-767c0-124-93-207-219-207-131 0-250 92-250 270V0H158" id="bv"/><path d="M158 0v-1118h180V0H158zm91-1301c-68 0-125-53-125-119s57-119 125-119c69 0 126 53 126 119s-57 119-126 119" id="bw"/><g id="k"><use transform="matrix(0.010850694444444444,0,0,0.010850694444444444,0,0)" xlink:href="#bf"/><use transform="matrix(0.010850694444444444,0,0,0.010850694444444444,14.2578125,0)" xlink:href="#bt"/><use transform="matrix(0.010850694444444444,0,0,0.010850694444444444,27.39800347222222,0)" xlink:href="#bu"/><use transform="matrix(0.010850694444444444,0,0,0.010850694444444444,41.00477430555556,0)" xlink:href="#bv"/><use transform="matrix(0.010850694444444444,0,0,0.010850694444444444,60.470920138888886,0)" xlink:href="#bw"/><use transform="matrix(0.010850694444444444,0,0,0.010850694444444444,65.85286458333333,0)" xlink:href="#bm"/></g><path d="M481 0L54-1118h197c107 314 236 620 325 951 87-331 217-637 324-951h197L670 0H481" id="bx"/><path d="M577 24c-279 0-473-224-473-580 0-354 195-576 474-576 218 0 287 134 324 193h14v-551h180V0H922v-173h-20C865-111 790 24 577 24zm27-161c203 0 314-172 314-421 0-247-108-413-314-413-212 0-317 181-317 413 0 235 108 421 317 421" id="by"/><path d="M613 24c-304 0-509-231-509-576 0-350 205-580 509-580 216 0 392 114 453 309l-173 49c-33-115-133-197-280-197-223 0-326 196-326 419 0 220 103 415 326 415 150 0 252-85 285-206l172 49C1010-95 832 24 613 24" id="bz"/><g id="l"><use transform="matrix(0.010850694444444444,0,0,0.010850694444444444,0,0)" xlink:href="#ba"/><use transform="matrix(0.010850694444444444,0,0,0.010850694444444444,13.35720486111111,0)" xlink:href="#bx"/><use transform="matrix(0.010850694444444444,0,0,0.010850694444444444,25.846354166666664,0)" xlink:href="#bw"/><use transform="matrix(0.010850694444444444,0,0,0.010850694444444444,31.228298611111104,0)" xlink:href="#by"/><use transform="matrix(0.010850694444444444,0,0,0.010850694444444444,44.83506944444444,0)" xlink:href="#bj"/><use transform="matrix(0.010850694444444444,0,0,0.010850694444444444,57.31336805555555,0)" xlink:href="#bo"/><use transform="matrix(0.010850694444444444,0,0,0.010850694444444444,70.44270833333333,0)" xlink:href="#bz"/><use transform="matrix(0.010850694444444444,0,0,0.010850694444444444,83.13802083333333,0)" xlink:href="#bl"/></g><path d="M646 20c-332 0-524-278-524-764 0-483 194-766 524-766s524 283 524 766c0 485-191 764-524 764zm0-166c218 0 341-220 341-598 0-380-123-601-341-601s-341 222-341 601c0 378 123 598 341 598" id="bA"/><path d="M789 20c-398 0-667-293-667-764 0-473 273-766 655-766 315 0 558 198 612 487h-196c-61-191-204-311-415-311-262 0-471 207-471 590 0 380 208 588 482 588 249 0 420-165 425-427H828v-166h572v163c0 370-256 606-611 606" id="bB"/><g id="m"><use transform="matrix(0.010850694444444444,0,0,0.010850694444444444,0,0)" xlink:href="#bA"/><use transform="matrix(0.010850694444444444,0,0,0.010850694444444444,14.019097222222221,0)" xlink:href="#bB"/></g><path d="M98-1322v-168h1126v168H757V0H567v-1322H98" id="bC"/><path d="M52 0l541-1490h220L1361 0h-200l-149-416H398L254 0H52zm404-582h497c-103-290-145-390-251-756-108 377-145 460-246 756" id="bD"/><g id="n"><use transform="matrix(0.010850694444444444,0,0,0.010850694444444444,0,0)" xlink:href="#bf"/><use transform="matrix(0.010850694444444444,0,0,0.010850694444444444,14.2578125,0)" xlink:href="#bC"/><use transform="matrix(0.010850694444444444,0,0,0.010850694444444444,27.940538194444443,0)" xlink:href="#aY"/><use transform="matrix(0.010850694444444444,0,0,0.010850694444444444,44.93272569444444,0)" xlink:href="#be"/><use transform="matrix(0.010850694444444444,0,0,0.010850694444444444,59.23394097222222,0)" xlink:href="#bD"/><use transform="matrix(0.010850694444444444,0,0,0.010850694444444444,73.80642361111111,0)" xlink:href="#bB"/><use transform="matrix(0.010850694444444444,0,0,0.010850694444444444,90.38628472222221,0)" xlink:href="#ba"/></g><path d="M783 20c-382 0-661-292-661-764 0-473 279-766 661-766 302 0 548 182 601 489h-190c-42-204-217-313-411-313-268 0-476 208-476 590 0 381 209 588 476 588 195 0 369-110 411-313h190c-52 303-296 489-601 489" id="bE"/><path d="M613 24c-304 0-509-231-509-576 0-350 205-580 509-580 305 0 511 230 511 580 0 345-206 576-511 576zm0-161c226 0 329-195 329-415 0-222-103-419-329-419-223 0-326 196-326 419 0 220 103 415 326 415" id="bF"/><g id="o"><use transform="matrix(0.008463541666666668,0,0,0.008463541666666668,0,0)" xlink:href="#bE"/><use transform="matrix(0.008463541666666668,0,0,0.008463541666666668,12.661458333333336,0)" xlink:href="#bj"/><use transform="matrix(0.008463541666666668,0,0,0.008463541666666668,22.394531250000004,0)" xlink:href="#bo"/><use transform="matrix(0.008463541666666668,0,0,0.008463541666666668,32.63541666666667,0)" xlink:href="#bF"/><use transform="matrix(0.008463541666666668,0,0,0.008463541666666668,43.028645833333336,0)" xlink:href="#bo"/><use transform="matrix(0.008463541666666668,0,0,0.008463541666666668,53.269531250000014,0)" xlink:href="#bw"/><use transform="matrix(0.008463541666666668,0,0,0.008463541666666668,57.467447916666686,0)" xlink:href="#bz"/><use transform="matrix(0.008463541666666668,0,0,0.008463541666666668,67.53906250000001,0)" xlink:href="#bj"/><use transform="matrix(0.008463541666666668,0,0,0.008463541666666668,77.27213541666669,0)" xlink:href="#bk"/></g><path d="M538 24C308 24 148-78 108-271l171-41c32 123 123 178 257 178 156 0 256-77 256-169 0-77-54-128-164-154l-186-44c-203-48-300-148-300-305 0-192 176-326 414-326 230 0 351 112 402 269l-163 42c-31-80-94-158-238-158-133 0-233 69-233 162 0 83 57 129 188 160l169 40c203 48 298 149 298 302 0 196-179 339-441 339" id="bG"/><path d="M158 418v-1536h174v179h20c37-59 106-193 324-193 279 0 474 222 474 576 0 356-194 580-473 580-213 0-288-135-325-197h-14v591H158zm492-555c209 0 317-186 317-421 0-232-105-413-317-413-206 0-314 166-314 413 0 249 111 421 314 421" id="bH"/><path d="M128 359l88-567h206L266 359H128" id="bI"/><g id="p"><use transform="matrix(0.008463541666666668,0,0,0.008463541666666668,0,0)" xlink:href="#bG"/><use transform="matrix(0.008463541666666668,0,0,0.008463541666666668,9.149088541666668,0)" xlink:href="#bH"/><use transform="matrix(0.008463541666666668,0,0,0.008463541666666668,19.762369791666675,0)" xlink:href="#bl"/><use transform="matrix(0.008463541666666668,0,0,0.008463541666666668,29.86783854166667,0)" xlink:href="#bz"/><use transform="matrix(0.008463541666666668,0,0,0.008463541666666668,39.77018229166667,0)" xlink:href="#bI"/></g><g id="q"><use transform="matrix(0.008463541666666668,0,0,0.008463541666666668,0,0)" xlink:href="#bz"/><use transform="matrix(0.008463541666666668,0,0,0.008463541666666668,9.902343750000002,0)" xlink:href="#bF"/><use transform="matrix(0.008463541666666668,0,0,0.008463541666666668,20.295572916666675,0)" xlink:href="#bo"/><use transform="matrix(0.008463541666666668,0,0,0.008463541666666668,30.53645833333334,0)" xlink:href="#bm"/><use transform="matrix(0.008463541666666668,0,0,0.008463541666666668,36.03776041666667,0)" xlink:href="#bl"/><use transform="matrix(0.008463541666666668,0,0,0.008463541666666668,46.14322916666667,0)" xlink:href="#bo"/><use transform="matrix(0.008463541666666668,0,0,0.008463541666666668,56.38411458333334,0)" xlink:href="#bm"/></g><path d="M338-670V0H158v-1490h180v566c73-149 190-208 336-208 226 0 379 139 379 422V0H872v-695c0-172-96-275-252-275-161 0-282 109-282 300" id="bJ"/><g id="r"><use transform="matrix(0.008463541666666668,0,0,0.008463541666666668,0,0)" xlink:href="#bJ"/><use transform="matrix(0.008463541666666668,0,0,0.008463541666666668,10.249348958333334,0)" xlink:href="#bj"/><use transform="matrix(0.008463541666666668,0,0,0.008463541666666668,19.982421875,0)" xlink:href="#bG"/><use transform="matrix(0.008463541666666668,0,0,0.008463541666666668,29.131510416666668,0)" xlink:href="#bJ"/></g><path d="M180 0v-1490h190c0 262 1 526-3 784 217-279 467-523 702-784h249L716-845 1319 0h-225L585-716 370-489V0H180" id="bK"/><path d="M180 0v-1490h190v644h782v-644h190V0h-190v-678H370V0H180" id="bL"/><g id="s"><use transform="matrix(0.010850694444444444,0,0,0.010850694444444444,0,0)" xlink:href="#bK"/><use transform="matrix(0.010850694444444444,0,0,0.010850694444444444,14.930555555555555,0)" xlink:href="#ba"/><use transform="matrix(0.010850694444444444,0,0,0.010850694444444444,28.287760416666664,0)" xlink:href="#ba"/><use transform="matrix(0.010850694444444444,0,0,0.010850694444444444,41.64496527777777,0)" xlink:href="#bd"/><use transform="matrix(0.010850694444444444,0,0,0.010850694444444444,55.8376736111111,0)" xlink:href="#ba"/><use transform="matrix(0.010850694444444444,0,0,0.010850694444444444,69.19487847222221,0)" xlink:href="#be"/><use transform="matrix(0.010850694444444444,0,0,0.010850694444444444,83.49609374999999,0)" xlink:href="#bL"/><use transform="matrix(0.010850694444444444,0,0,0.010850694444444444,100.01085069444441,0)" xlink:href="#bh"/><use transform="matrix(0.010850694444444444,0,0,0.010850694444444444,116.54730902777776,0)" xlink:href="#bq"/></g><path d="M180 0v-1490h270l367 940c28 72 75 218 110 339 35-117 81-264 110-339l362-940h271V0h-187c2-448-5-837 7-1287-157 497-311 829-483 1287H842C666-458 514-784 354-1284c12 438 5 843 7 1284H180" id="bM"/><g id="t"><use transform="matrix(0.010850694444444444,0,0,0.010850694444444444,0,0)" xlink:href="#bM"/><use transform="matrix(0.010850694444444444,0,0,0.010850694444444444,20.07378472222222,0)" xlink:href="#bd"/><use transform="matrix(0.010850694444444444,0,0,0.010850694444444444,34.26649305555556,0)" xlink:href="#bE"/></g><path d="M611 442c-248 0-391-105-460-228l146-94c47 65 117 165 314 165 178 0 307-82 307-266v-224h-17C863-141 792-18 576-18c-268 0-472-195-472-546 0-346 197-568 476-568 216 0 288 133 326 193h17v-179h175V29c0 289-215 413-487 413zm-5-620c203 0 314-146 314-390 0-237-108-403-314-403-213 0-319 180-319 403 0 230 109 390 319 390" id="bN"/><g id="u"><use transform="matrix(0.010850694444444444,0,0,0.010850694444444444,0,0)" xlink:href="#bG"/><use transform="matrix(0.010850694444444444,0,0,0.010850694444444444,11.729600694444445,0)" xlink:href="#bw"/><use transform="matrix(0.010850694444444444,0,0,0.010850694444444444,17.11154513888889,0)" xlink:href="#bN"/><use transform="matrix(0.010850694444444444,0,0,0.010850694444444444,30.74001736111111,0)" xlink:href="#bo"/><use transform="matrix(0.010850694444444444,0,0,0.010850694444444444,43.869357638888886,0)" xlink:href="#bl"/><use transform="matrix(0.010850694444444444,0,0,0.010850694444444444,56.82508680555555,0)" xlink:href="#bp"/></g><path d="M798-719v166H144v-166h654" id="bO"/><use transform="matrix(0.010850694444444444,0,0,0.010850694444444444,0,0)" xlink:href="#bO" id="v"/><path d="M158 0v-1490h180v865h22l478-493h223L593-638 1096 0H865L456-523 338-412V0H158" id="bP"/><path d="M140 405l46-156c120 36 205 19 263-150l32-93L54-1118h197c107 313 237 620 324 950 87-331 219-637 326-950h196L606 167c-68 178-176 259-334 259-64 0-113-12-132-21" id="bQ"/><g id="w"><use transform="matrix(0.008463541666666668,0,0,0.008463541666666668,0,0)" xlink:href="#bC"/><use transform="matrix(0.008463541666666668,0,0,0.008463541666666668,9.91080729166667,0)" xlink:href="#bt"/><use transform="matrix(0.008463541666666668,0,0,0.008463541666666668,20.160156250000004,0)" xlink:href="#bp"/><use transform="matrix(0.008463541666666668,0,0,0.008463541666666668,26.956380208333336,0)" xlink:href="#bo"/><use transform="matrix(0.008463541666666668,0,0,0.008463541666666668,37.197265625,0)" xlink:href="#bP"/><use transform="matrix(0.008463541666666668,0,0,0.008463541666666668,46.32096354166667,0)" xlink:href="#bl"/><use transform="matrix(0.008463541666666668,0,0,0.008463541666666668,56.08789062500001,0)" xlink:href="#bQ"/><use transform="matrix(0.008463541666666668,0,0,0.008463541666666668,65.14388020833334,0)" xlink:href="#bO"/><use transform="matrix(0.008463541666666668,0,0,0.008463541666666668,73.11653645833334,0)" xlink:href="#bu"/><use transform="matrix(0.008463541666666668,0,0,0.008463541666666668,83.89908854166667,0)" xlink:href="#bj"/><use transform="matrix(0.008463541666666668,0,0,0.008463541666666668,93.63216145833334,0)" xlink:href="#bz"/><use transform="matrix(0.008463541666666668,0,0,0.008463541666666668,103.53450520833334,0)" xlink:href="#bP"/><use transform="matrix(0.008463541666666668,0,0,0.008463541666666668,112.658203125,0)" xlink:href="#bl"/><use transform="matrix(0.008463541666666668,0,0,0.008463541666666668,122.763671875,0)" xlink:href="#by"/></g><g id="x"><use transform="matrix(0.008463541666666668,0,0,0.008463541666666668,0,0)" xlink:href="#bG"/><use transform="matrix(0.008463541666666668,0,0,0.008463541666666668,9.149088541666668,0)" xlink:href="#bw"/><use transform="matrix(0.008463541666666668,0,0,0.008463541666666668,13.347005208333336,0)" xlink:href="#bN"/><use transform="matrix(0.008463541666666668,0,0,0.008463541666666668,23.97721354166667,0)" xlink:href="#bo"/><use transform="matrix(0.008463541666666668,0,0,0.008463541666666668,34.21809895833334,0)" xlink:href="#bw"/><use transform="matrix(0.008463541666666668,0,0,0.008463541666666668,38.41601562500001,0)" xlink:href="#bo"/><use transform="matrix(0.008463541666666668,0,0,0.008463541666666668,48.65690104166667,0)" xlink:href="#bN"/></g><g id="y"><use transform="matrix(0.008463541666666668,0,0,0.008463541666666668,0,0)" xlink:href="#bP"/><use transform="matrix(0.008463541666666668,0,0,0.008463541666666668,9.123697916666668,0)" xlink:href="#bl"/><use transform="matrix(0.008463541666666668,0,0,0.008463541666666668,18.890625000000004,0)" xlink:href="#bQ"/></g><g id="z"><use transform="matrix(0.008463541666666668,0,0,0.008463541666666668,0,0)" xlink:href="#aX"/><use transform="matrix(0.008463541666666668,0,0,0.008463541666666668,13.059244791666668,0)" xlink:href="#bl"/><use transform="matrix(0.008463541666666668,0,0,0.008463541666666668,22.826171875000004,0)" xlink:href="#bx"/><use transform="matrix(0.008463541666666668,0,0,0.008463541666666668,32.22916666666667,0)" xlink:href="#bl"/><use transform="matrix(0.008463541666666668,0,0,0.008463541666666668,42.33463541666667,0)" xlink:href="#bp"/></g><g id="A"><use transform="matrix(0.008463541666666668,0,0,0.008463541666666668,0,0)" xlink:href="#bn"/><use transform="matrix(0.008463541666666668,0,0,0.008463541666666668,14.184895833333336,0)" xlink:href="#bJ"/><use transform="matrix(0.008463541666666668,0,0,0.008463541666666668,24.43424479166667,0)" xlink:href="#bF"/><use transform="matrix(0.008463541666666668,0,0,0.008463541666666668,34.82747395833334,0)" xlink:href="#bk"/><use transform="matrix(0.008463541666666668,0,0,0.008463541666666668,39.02539062500001,0)" xlink:href="#bl"/></g><g id="B"><use transform="matrix(0.008463541666666668,0,0,0.008463541666666668,0,0)" xlink:href="#bF"/><use transform="matrix(0.008463541666666668,0,0,0.008463541666666668,10.393229166666668,0)" xlink:href="#bo"/></g><g id="C"><use transform="matrix(0.008463541666666668,0,0,0.008463541666666668,0,0)" xlink:href="#bj"/><use transform="matrix(0.008463541666666668,0,0,0.008463541666666668,9.733072916666668,0)" xlink:href="#bo"/><use transform="matrix(0.008463541666666668,0,0,0.008463541666666668,19.720052083333336,0)" xlink:href="#bQ"/></g><g id="D"><use transform="matrix(0.008463541666666668,0,0,0.008463541666666668,0,0)" xlink:href="#bG"/><use transform="matrix(0.008463541666666668,0,0,0.008463541666666668,9.149088541666668,0)" xlink:href="#bl"/><use transform="matrix(0.008463541666666668,0,0,0.008463541666666668,19.25455729166667,0)" xlink:href="#bp"/><use transform="matrix(0.008463541666666668,0,0,0.008463541666666668,26.050781250000004,0)" xlink:href="#bx"/><use transform="matrix(0.008463541666666668,0,0,0.008463541666666668,35.45377604166667,0)" xlink:href="#bl"/><use transform="matrix(0.008463541666666668,0,0,0.008463541666666668,45.55924479166667,0)" xlink:href="#bp"/></g><g id="E"><use transform="matrix(0.010850694444444444,0,0,0.010850694444444444,0,0)" xlink:href="#bE"/><use transform="matrix(0.010850694444444444,0,0,0.010850694444444444,16.23263888888889,0)" xlink:href="#bL"/><use transform="matrix(0.010850694444444444,0,0,0.010850694444444444,32.74739583333333,0)" xlink:href="#bD"/><use transform="matrix(0.010850694444444444,0,0,0.010850694444444444,48.07942708333333,0)" xlink:href="#br"/><use transform="matrix(0.010850694444444444,0,0,0.010850694444444444,54.04730902777778,0)" xlink:href="#aX"/></g><path d="M218-607c0-325 108-727 258-974h175c-155 315-250 682-250 974 0 265 78 531 250 886H476C306-10 218-315 218-607" id="bR"/><path d="M96 279C273-86 346-350 346-607c0-292-95-659-250-974h175c150 246 258 650 258 974 0 297-91 602-258 886H96" id="bS"/><g id="F"><use transform="matrix(0.010850694444444444,0,0,0.010850694444444444,0,0)" xlink:href="#bR"/><use transform="matrix(0.010850694444444444,0,0,0.010850694444444444,8.10546875,0)" xlink:href="#bB"/><use transform="matrix(0.010850694444444444,0,0,0.010850694444444444,24.68532986111111,0)" xlink:href="#bj"/><use transform="matrix(0.010850694444444444,0,0,0.010850694444444444,37.16362847222222,0)" xlink:href="#bk"/><use transform="matrix(0.010850694444444444,0,0,0.010850694444444444,42.545572916666664,0)" xlink:href="#bw"/><use transform="matrix(0.010850694444444444,0,0,0.010850694444444444,47.92751736111111,0)" xlink:href="#bk"/><use transform="matrix(0.010850694444444444,0,0,0.010850694444444444,53.30946180555556,0)" xlink:href="#bl"/><use transform="matrix(0.010850694444444444,0,0,0.010850694444444444,66.26519097222221,0)" xlink:href="#bF"/><use transform="matrix(0.010850694444444444,0,0,0.010850694444444444,79.34027777777776,0)" xlink:href="#bS"/></g><g id="G"><use transform="matrix(0.010850694444444444,0,0,0.010850694444444444,0,0)" xlink:href="#bM"/><use transform="matrix(0.010850694444444444,0,0,0.010850694444444444,20.07378472222222,0)" xlink:href="#bw"/><use transform="matrix(0.010850694444444444,0,0,0.010850694444444444,25.455729166666664,0)" xlink:href="#bk"/><use transform="matrix(0.010850694444444444,0,0,0.010850694444444444,30.837673611111104,0)" xlink:href="#bl"/><use transform="matrix(0.010850694444444444,0,0,0.010850694444444444,43.79340277777777,0)" xlink:href="#bG"/><use transform="matrix(0.010850694444444444,0,0,0.010850694444444444,55.52300347222221,0)" xlink:href="#bm"/><use transform="matrix(0.010850694444444444,0,0,0.010850694444444444,62.57595486111111,0)" xlink:href="#bF"/><use transform="matrix(0.010850694444444444,0,0,0.010850694444444444,75.90060763888889,0)" xlink:href="#bo"/><use transform="matrix(0.010850694444444444,0,0,0.010850694444444444,89.02994791666666,0)" xlink:href="#bl"/><use transform="matrix(0.010850694444444444,0,0,0.010850694444444444,101.98567708333333,0)" xlink:href="#ba"/><use transform="matrix(0.010850694444444444,0,0,0.010850694444444444,115.34288194444444,0)" xlink:href="#bG"/><use transform="matrix(0.010850694444444444,0,0,0.010850694444444444,127.07248263888889,0)" xlink:href="#bz"/><use transform="matrix(0.010850694444444444,0,0,0.010850694444444444,139.76779513888889,0)" xlink:href="#bp"/><use transform="matrix(0.010850694444444444,0,0,0.010850694444444444,147.76475694444443,0)" xlink:href="#bF"/><use transform="matrix(0.010850694444444444,0,0,0.010850694444444444,160.68793402777774,0)" xlink:href="#bn"/></g><g id="H"><use transform="matrix(0.010850694444444444,0,0,0.010850694444444444,0,0)" xlink:href="#bR"/><use transform="matrix(0.008463541666666668,0,0,0.008463541666666668,8.10546875,0)" xlink:href="#bF"/><use transform="matrix(0.008463541666666668,0,0,0.008463541666666668,18.498697916666668,0)" xlink:href="#bo"/><use transform="matrix(0.008463541666666668,0,0,0.008463541666666668,28.739583333333336,0)" xlink:href="#bk"/><use transform="matrix(0.008463541666666668,0,0,0.008463541666666668,33.02213541666667,0)" xlink:href="#bQ"/><use transform="matrix(0.008463541666666668,0,0,0.008463541666666668,42.76367187500001,0)" xlink:href="#aY"/><use transform="matrix(0.008463541666666668,0,0,0.008463541666666668,56.01757812500001,0)" xlink:href="#bn"/><use transform="matrix(0.008463541666666668,0,0,0.008463541666666668,70.20247395833336,0)" xlink:href="#bo"/><use transform="matrix(0.008463541666666668,0,0,0.008463541666666668,80.44335937500001,0)" xlink:href="#bl"/><use transform="matrix(0.008463541666666668,0,0,0.008463541666666668,90.54882812500001,0)" xlink:href="#bp"/><use transform="matrix(0.008463541666666668,0,0,0.008463541666666668,97.07421875000001,0)" xlink:href="#aY"/><use transform="matrix(0.008463541666666668,0,0,0.008463541666666668,110.328125,0)" xlink:href="#bp"/><use transform="matrix(0.008463541666666668,0,0,0.008463541666666668,116.16796875000001,0)" xlink:href="#bD"/><use transform="matrix(0.008463541666666668,0,0,0.008463541666666668,128.12695312500003,0)" xlink:href="#bN"/><use transform="matrix(0.008463541666666668,0,0,0.008463541666666668,138.75716145833337,0)" xlink:href="#bl"/><use transform="matrix(0.008463541666666668,0,0,0.008463541666666668,148.86263020833337,0)" xlink:href="#bo"/><use transform="matrix(0.008463541666666668,0,0,0.008463541666666668,159.10351562500003,0)" xlink:href="#bm"/></g><path d="M678-1118v154H420V0H240v-964H20v-154h220v-149c0-194 155-293 318-293 85 0 141 18 168 30l-50 154c-19-6-47-17-97-17-111 0-159 58-159 166v109h258" id="bT"/><g id="I"><use transform="matrix(0.008463541666666668,0,0,0.008463541666666668,0,0)" xlink:href="#bv"/><use transform="matrix(0.008463541666666668,0,0,0.008463541666666668,15.183593750000002,0)" xlink:href="#bF"/><use transform="matrix(0.008463541666666668,0,0,0.008463541666666668,25.57682291666667,0)" xlink:href="#by"/><use transform="matrix(0.008463541666666668,0,0,0.008463541666666668,36.19010416666667,0)" xlink:href="#bw"/><use transform="matrix(0.008463541666666668,0,0,0.008463541666666668,40.388020833333336,0)" xlink:href="#bT"/><use transform="matrix(0.008463541666666668,0,0,0.008463541666666668,46.80338541666667,0)" xlink:href="#bw"/><use transform="matrix(0.008463541666666668,0,0,0.008463541666666668,51.001302083333336,0)" xlink:href="#bl"/><use transform="matrix(0.008463541666666668,0,0,0.008463541666666668,61.106770833333336,0)" xlink:href="#bp"/><use transform="matrix(0.008463541666666668,0,0,0.008463541666666668,67.63216145833334,0)" xlink:href="#bS"/></g><g id="J"><use transform="matrix(0.008463541666666668,0,0,0.008463541666666668,0,0)" xlink:href="#bl"/><use transform="matrix(0.008463541666666668,0,0,0.008463541666666668,9.766927083333337,0)" xlink:href="#bx"/><use transform="matrix(0.008463541666666668,0,0,0.008463541666666668,19.508463541666675,0)" xlink:href="#bw"/><use transform="matrix(0.008463541666666668,0,0,0.008463541666666668,23.70638020833334,0)" xlink:href="#by"/><use transform="matrix(0.008463541666666668,0,0,0.008463541666666668,34.31966145833334,0)" xlink:href="#bl"/><use transform="matrix(0.008463541666666668,0,0,0.008463541666666668,44.42513020833334,0)" xlink:href="#bo"/><use transform="matrix(0.008463541666666668,0,0,0.008463541666666668,54.666015625000014,0)" xlink:href="#bz"/><use transform="matrix(0.008463541666666668,0,0,0.008463541666666668,64.56835937500001,0)" xlink:href="#bl"/></g><g id="K"><use transform="matrix(0.008463541666666668,0,0,0.008463541666666668,0,0)" xlink:href="#bt"/><use transform="matrix(0.008463541666666668,0,0,0.008463541666666668,10.249348958333334,0)" xlink:href="#bH"/><use transform="matrix(0.008463541666666668,0,0,0.008463541666666668,20.862630208333336,0)" xlink:href="#bk"/><use transform="matrix(0.008463541666666668,0,0,0.008463541666666668,25.060546875000004,0)" xlink:href="#bF"/><use transform="matrix(0.008463541666666668,0,0,0.008463541666666668,35.623046875,0)" xlink:href="#bj"/><use transform="matrix(0.008463541666666668,0,0,0.008463541666666668,45.35611979166667,0)" xlink:href="#by"/></g><g id="L"><use transform="matrix(0.008463541666666668,0,0,0.008463541666666668,0,0)" xlink:href="#bG"/><use transform="matrix(0.008463541666666668,0,0,0.008463541666666668,9.149088541666668,0)" xlink:href="#bH"/><use transform="matrix(0.008463541666666668,0,0,0.008463541666666668,19.762369791666675,0)" xlink:href="#bl"/><use transform="matrix(0.008463541666666668,0,0,0.008463541666666668,29.86783854166667,0)" xlink:href="#bz"/></g><g id="M"><use transform="matrix(0.008463541666666668,0,0,0.008463541666666668,0,0)" xlink:href="#bG"/><use transform="matrix(0.008463541666666668,0,0,0.008463541666666668,9.149088541666668,0)" xlink:href="#bw"/><use transform="matrix(0.008463541666666668,0,0,0.008463541666666668,13.347005208333336,0)" xlink:href="#bN"/><use transform="matrix(0.008463541666666668,0,0,0.008463541666666668,23.97721354166667,0)" xlink:href="#bo"/><use transform="matrix(0.008463541666666668,0,0,0.008463541666666668,34.21809895833334,0)" xlink:href="#bl"/><use transform="matrix(0.008463541666666668,0,0,0.008463541666666668,44.32356770833334,0)" xlink:href="#by"/></g><path d="M65 0l393-574-370-544h210c88 136 192 297 267 435 67-142 176-302 264-435h206L661-564 1053 0H844c-94-144-206-310-287-458C484-308 366-142 273 0H65" id="bU"/><g id="N"><use transform="matrix(0.008463541666666668,0,0,0.008463541666666668,0,0)" xlink:href="#bm"/><use transform="matrix(0.008463541666666668,0,0,0.008463541666666668,5.670572916666668,0)" xlink:href="#bU"/></g><g id="O"><use transform="matrix(0.010850694444444444,0,0,0.010850694444444444,0,0)" xlink:href="#bE"/><use transform="matrix(0.010850694444444444,0,0,0.010850694444444444,16.23263888888889,0)" xlink:href="#bk"/><use transform="matrix(0.010850694444444444,0,0,0.010850694444444444,21.614583333333336,0)" xlink:href="#bj"/><use transform="matrix(0.010850694444444444,0,0,0.010850694444444444,34.09288194444444,0)" xlink:href="#bt"/><use transform="matrix(0.010850694444444444,0,0,0.010850694444444444,47.233072916666664,0)" xlink:href="#by"/><use transform="matrix(0.010850694444444444,0,0,0.010850694444444444,60.83984375,0)" xlink:href="#bl"/></g><g id="P"><use transform="matrix(0.010850694444444444,0,0,0.010850694444444444,0,0)" xlink:href="#bf"/><use transform="matrix(0.010850694444444444,0,0,0.010850694444444444,14.2578125,0)" xlink:href="#bF"/><use transform="matrix(0.010850694444444444,0,0,0.010850694444444444,27.58246527777778,0)" xlink:href="#bo"/><use transform="matrix(0.010850694444444444,0,0,0.010850694444444444,40.71180555555556,0)" xlink:href="#bo"/><use transform="matrix(0.010850694444444444,0,0,0.010850694444444444,53.84114583333333,0)" xlink:href="#bl"/><use transform="matrix(0.010850694444444444,0,0,0.010850694444444444,66.796875,0)" xlink:href="#bm"/></g><g id="Q"><use transform="matrix(0.010850694444444444,0,0,0.010850694444444444,0,0)" xlink:href="#bR"/><use transform="matrix(0.010850694444444444,0,0,0.010850694444444444,8.10546875,0)" xlink:href="#bH"/><use transform="matrix(0.010850694444444444,0,0,0.010850694444444444,21.712239583333332,0)" xlink:href="#bk"/><use transform="matrix(0.010850694444444444,0,0,0.010850694444444444,27.09418402777778,0)" xlink:href="#bj"/><use transform="matrix(0.010850694444444444,0,0,0.010850694444444444,39.572482638888886,0)" xlink:href="#bo"/><use transform="matrix(0.010850694444444444,0,0,0.010850694444444444,52.701822916666664,0)" xlink:href="#bo"/><use transform="matrix(0.010850694444444444,0,0,0.010850694444444444,65.83116319444444,0)" xlink:href="#bw"/><use transform="matrix(0.010850694444444444,0,0,0.010850694444444444,71.21310763888889,0)" xlink:href="#bo"/><use transform="matrix(0.010850694444444444,0,0,0.010850694444444444,84.34244791666666,0)" xlink:href="#bN"/><use transform="matrix(0.010850694444444444,0,0,0.010850694444444444,97.97092013888889,0)" xlink:href="#bS"/></g><g id="R"><use transform="matrix(0.010850694444444444,0,0,0.010850694444444444,0,0)" xlink:href="#bC"/><use transform="matrix(0.010850694444444444,0,0,0.010850694444444444,13.0859375,0)" xlink:href="#bp"/><use transform="matrix(0.010850694444444444,0,0,0.010850694444444444,21.451822916666664,0)" xlink:href="#bt"/><use transform="matrix(0.010850694444444444,0,0,0.010850694444444444,34.592013888888886,0)" xlink:href="#bG"/><use transform="matrix(0.010850694444444444,0,0,0.010850694444444444,46.32161458333333,0)" xlink:href="#bm"/></g><g id="S"><use transform="matrix(0.010850694444444444,0,0,0.010850694444444444,0,0)" xlink:href="#bf"/><use transform="matrix(0.010850694444444444,0,0,0.010850694444444444,14.2578125,0)" xlink:href="#bm"/><use transform="matrix(0.010850694444444444,0,0,0.010850694444444444,21.63628472222222,0)" xlink:href="#bj"/><use transform="matrix(0.010850694444444444,0,0,0.010850694444444444,34.11458333333333,0)" xlink:href="#bz"/><use transform="matrix(0.010850694444444444,0,0,0.010850694444444444,46.80989583333333,0)" xlink:href="#bP"/></g><path d="M2048-719v166H0v-166h2048" id="bV"/><use transform="matrix(0.010850694444444444,0,0,0.010850694444444444,0,0)" xlink:href="#bV" id="T"/><g id="U"><use transform="matrix(0.010850694444444444,0,0,0.010850694444444444,0,0)" xlink:href="#ba"/><use transform="matrix(0.010850694444444444,0,0,0.010850694444444444,13.35720486111111,0)" xlink:href="#bc"/><use transform="matrix(0.010850694444444444,0,0,0.010850694444444444,28.515625,0)" xlink:href="#br"/><use transform="matrix(0.010850694444444444,0,0,0.010850694444444444,34.48350694444444,0)" xlink:href="#bg"/></g><path d="M295-573c-75 0-135-60-135-135s60-135 135-135 135 60 135 135-60 135-135 135" id="bW"/><use transform="matrix(0.010850694444444444,0,0,0.010850694444444444,0,0)" xlink:href="#bW" id="V"/><path d="M154 0v-137l495-537c165-179 249-281 249-418 0-156-121-253-280-253-170 0-278 110-278 278H158c0-264 200-443 465-443 266 0 455 183 455 416 0 161-73 288-336 568L416-179v12h687V0H154" id="bX"/><g id="W"><use transform="matrix(0.010850694444444444,0,0,0.010850694444444444,0,0)" xlink:href="#bE"/><use transform="matrix(0.010850694444444444,0,0,0.010850694444444444,16.23263888888889,0)" xlink:href="#bX"/><use transform="matrix(0.010850694444444444,0,0,0.010850694444444444,29.78515625,0)" xlink:href="#bd"/><use transform="matrix(0.010850694444444444,0,0,0.010850694444444444,42.33940972222222,0)" xlink:href="#bD"/></g><use transform="matrix(0.010850694444444444,0,0,0.010850694444444444,0,0)" xlink:href="#bW" id="X"/><g id="Y"><use transform="matrix(0.010850694444444444,0,0,0.010850694444444444,0,0)" xlink:href="#be"/><use transform="matrix(0.010850694444444444,0,0,0.010850694444444444,13.975694444444445,0)" xlink:href="#bl"/><use transform="matrix(0.010850694444444444,0,0,0.010850694444444444,27.1484375,0)" xlink:href="#bj"/><use transform="matrix(0.010850694444444444,0,0,0.010850694444444444,39.626736111111114,0)" xlink:href="#bk"/><use transform="matrix(0.010850694444444444,0,0,0.010850694444444444,45.00868055555556,0)" xlink:href="#bw"/><use transform="matrix(0.010850694444444444,0,0,0.010850694444444444,50.390625,0)" xlink:href="#bm"/><use transform="matrix(0.010850694444444444,0,0,0.010850694444444444,58.09461805555555,0)" xlink:href="#bQ"/></g><path d="M295 13c-75 0-135-60-135-135s60-135 135-135 135 60 135 135S370 13 295 13" id="bY"/><g id="Z"><use transform="matrix(0.010850694444444444,0,0,0.010850694444444444,0,0)" xlink:href="#aZ"/><use transform="matrix(0.010850694444444444,0,0,0.010850694444444444,16.03732638888889,0)" xlink:href="#bl"/><use transform="matrix(0.010850694444444444,0,0,0.010850694444444444,28.99305555555556,0)" xlink:href="#bT"/><use transform="matrix(0.010850694444444444,0,0,0.010850694444444444,35.959201388888886,0)" xlink:href="#bY"/></g><g id="aa"><use transform="matrix(0.010850694444444444,0,0,0.010850694444444444,0,0)" xlink:href="#bE"/><use transform="matrix(0.010850694444444444,0,0,0.010850694444444444,16.23263888888889,0)" xlink:href="#bk"/><use transform="matrix(0.010850694444444444,0,0,0.010850694444444444,21.614583333333336,0)" xlink:href="#bj"/><use transform="matrix(0.010850694444444444,0,0,0.010850694444444444,34.09288194444444,0)" xlink:href="#bt"/><use transform="matrix(0.010850694444444444,0,0,0.010850694444444444,47.233072916666664,0)" xlink:href="#by"/><use transform="matrix(0.010850694444444444,0,0,0.010850694444444444,60.83984375,0)" xlink:href="#bl"/></g><path d="M600 0L52-1490h200c166 485 304 806 458 1336 156-533 285-846 449-1336h202L819 0H600" id="bZ"/><g id="ab"><use transform="matrix(0.010850694444444444,0,0,0.010850694444444444,0,0)" xlink:href="#bZ"/><use transform="matrix(0.010850694444444444,0,0,0.010850694444444444,15.33203125,0)" xlink:href="#bw"/><use transform="matrix(0.010850694444444444,0,0,0.010850694444444444,20.713975694444443,0)" xlink:href="#bG"/><use transform="matrix(0.010850694444444444,0,0,0.010850694444444444,32.443576388888886,0)" xlink:href="#bw"/><use transform="matrix(0.010850694444444444,0,0,0.010850694444444444,37.82552083333333,0)" xlink:href="#bF"/><use transform="matrix(0.010850694444444444,0,0,0.010850694444444444,51.15017361111111,0)" xlink:href="#bo"/></g><g id="ac"><use transform="matrix(0.010850694444444444,0,0,0.010850694444444444,0,0)" xlink:href="#bR"/><use transform="matrix(0.010850694444444444,0,0,0.010850694444444444,8.10546875,0)" xlink:href="#bx"/><use transform="matrix(0.010850694444444444,0,0,0.010850694444444444,20.16059027777778,0)" xlink:href="#bl"/><use transform="matrix(0.010850694444444444,0,0,0.010850694444444444,33.11631944444444,0)" xlink:href="#bp"/><use transform="matrix(0.010850694444444444,0,0,0.010850694444444444,41.82942708333333,0)" xlink:href="#bw"/><use transform="matrix(0.010850694444444444,0,0,0.010850694444444444,47.21137152777778,0)" xlink:href="#bT"/><use transform="matrix(0.010850694444444444,0,0,0.010850694444444444,55.43619791666666,0)" xlink:href="#bw"/><use transform="matrix(0.010850694444444444,0,0,0.010850694444444444,60.8181423611111,0)" xlink:href="#bz"/><use transform="matrix(0.010850694444444444,0,0,0.010850694444444444,73.73046874999999,0)" xlink:href="#bj"/><use transform="matrix(0.010850694444444444,0,0,0.010850694444444444,86.2087673611111,0)" xlink:href="#bm"/><use transform="matrix(0.010850694444444444,0,0,0.010850694444444444,93.47873263888887,0)" xlink:href="#bw"/><use transform="matrix(0.010850694444444444,0,0,0.010850694444444444,98.86067708333331,0)" xlink:href="#bF"/><use transform="matrix(0.010850694444444444,0,0,0.010850694444444444,112.18532986111109,0)" xlink:href="#bo"/><use transform="matrix(0.010850694444444444,0,0,0.010850694444444444,125.31467013888887,0)" xlink:href="#bS"/></g><g id="ad"><use transform="matrix(0.008463541666666668,0,0,0.008463541666666668,0,0)" xlink:href="#bo"/><use transform="matrix(0.008463541666666668,0,0,0.008463541666666668,10.240885416666668,0)" xlink:href="#bj"/><use transform="matrix(0.008463541666666668,0,0,0.008463541666666668,19.973958333333336,0)" xlink:href="#bm"/><use transform="matrix(0.008463541666666668,0,0,0.008463541666666668,25.644531250000004,0)" xlink:href="#bt"/><use transform="matrix(0.008463541666666668,0,0,0.008463541666666668,35.893880208333336,0)" xlink:href="#bp"/><use transform="matrix(0.008463541666666668,0,0,0.008463541666666668,42.419270833333336,0)" xlink:href="#bj"/><use transform="matrix(0.008463541666666668,0,0,0.008463541666666668,52.15234375,0)" xlink:href="#bk"/></g><g id="ae"><use transform="matrix(0.008463541666666668,0,0,0.008463541666666668,0,0)" xlink:href="#bk"/><use transform="matrix(0.008463541666666668,0,0,0.008463541666666668,4.197916666666667,0)" xlink:href="#bj"/><use transform="matrix(0.008463541666666668,0,0,0.008463541666666668,13.930989583333336,0)" xlink:href="#bo"/><use transform="matrix(0.008463541666666668,0,0,0.008463541666666668,24.171875000000004,0)" xlink:href="#bN"/><use transform="matrix(0.008463541666666668,0,0,0.008463541666666668,34.802083333333336,0)" xlink:href="#bt"/><use transform="matrix(0.008463541666666668,0,0,0.008463541666666668,45.05143229166667,0)" xlink:href="#bj"/><use transform="matrix(0.008463541666666668,0,0,0.008463541666666668,54.78450520833334,0)" xlink:href="#bN"/><use transform="matrix(0.008463541666666668,0,0,0.008463541666666668,65.41471354166667,0)" xlink:href="#bl"/></g><g id="af"><use transform="matrix(0.008463541666666668,0,0,0.008463541666666668,0,0)" xlink:href="#bH"/><use transform="matrix(0.008463541666666668,0,0,0.008463541666666668,10.613281250000002,0)" xlink:href="#bp"/><use transform="matrix(0.008463541666666668,0,0,0.008463541666666668,16.850911458333336,0)" xlink:href="#bF"/><use transform="matrix(0.008463541666666668,0,0,0.008463541666666668,26.905598958333336,0)" xlink:href="#bx"/><use transform="matrix(0.008463541666666668,0,0,0.008463541666666668,36.30859375,0)" xlink:href="#bl"/><use transform="matrix(0.008463541666666668,0,0,0.008463541666666668,46.4140625,0)" xlink:href="#bo"/><use transform="matrix(0.008463541666666668,0,0,0.008463541666666668,56.65494791666667,0)" xlink:href="#bj"/><use transform="matrix(0.008463541666666668,0,0,0.008463541666666668,66.38802083333334,0)" xlink:href="#bo"/><use transform="matrix(0.008463541666666668,0,0,0.008463541666666668,76.62890625000001,0)" xlink:href="#bz"/><use transform="matrix(0.008463541666666668,0,0,0.008463541666666668,86.53125000000001,0)" xlink:href="#bl"/></g><g id="ag"><use transform="matrix(0.008463541666666668,0,0,0.008463541666666668,0,0)" xlink:href="#bG"/><use transform="matrix(0.008463541666666668,0,0,0.008463541666666668,9.149088541666668,0)" xlink:href="#bw"/><use transform="matrix(0.008463541666666668,0,0,0.008463541666666668,13.347005208333336,0)" xlink:href="#bN"/><use transform="matrix(0.008463541666666668,0,0,0.008463541666666668,23.97721354166667,0)" xlink:href="#bo"/><use transform="matrix(0.008463541666666668,0,0,0.008463541666666668,34.21809895833334,0)" xlink:href="#bj"/><use transform="matrix(0.008463541666666668,0,0,0.008463541666666668,43.951171875000014,0)" xlink:href="#bk"/><use transform="matrix(0.008463541666666668,0,0,0.008463541666666668,48.14908854166668,0)" xlink:href="#bG"/></g><g id="ah"><use transform="matrix(0.010850694444444444,0,0,0.010850694444444444,0,0)" xlink:href="#ba"/><use transform="matrix(0.010850694444444444,0,0,0.010850694444444444,13.35720486111111,0)" xlink:href="#bC"/><use transform="matrix(0.010850694444444444,0,0,0.010850694444444444,27.701822916666664,0)" xlink:href="#bL"/><use transform="matrix(0.010850694444444444,0,0,0.010850694444444444,44.21657986111111,0)" xlink:href="#ba"/><use transform="matrix(0.010850694444444444,0,0,0.010850694444444444,57.57378472222221,0)" xlink:href="#be"/><use transform="matrix(0.010850694444444444,0,0,0.010850694444444444,71.87499999999999,0)" xlink:href="#ba"/><use transform="matrix(0.010850694444444444,0,0,0.010850694444444444,85.2322048611111,0)" xlink:href="#bh"/><use transform="matrix(0.010850694444444444,0,0,0.010850694444444444,101.76866319444441,0)" xlink:href="#bM"/></g><g id="ai"><use transform="matrix(0.010850694444444444,0,0,0.010850694444444444,0,0)" xlink:href="#bf"/><use transform="matrix(0.010850694444444444,0,0,0.010850694444444444,14.2578125,0)" xlink:href="#ba"/><use transform="matrix(0.010850694444444444,0,0,0.010850694444444444,27.61501736111111,0)" xlink:href="#bd"/><use transform="matrix(0.010850694444444444,0,0,0.010850694444444444,41.80772569444444,0)" xlink:href="#aY"/><use transform="matrix(0.010850694444444444,0,0,0.010850694444444444,58.79991319444444,0)" xlink:href="#bs"/><use transform="matrix(0.010850694444444444,0,0,0.010850694444444444,71.36501736111111,0)" xlink:href="#br"/><use transform="matrix(0.010850694444444444,0,0,0.010850694444444444,77.33289930555556,0)" xlink:href="#bD"/></g><g id="aj"><use transform="matrix(0.010850694444444444,0,0,0.010850694444444444,0,0)" xlink:href="#ba"/><use transform="matrix(0.010850694444444444,0,0,0.010850694444444444,13.35720486111111,0)" xlink:href="#aX"/><use transform="matrix(0.010850694444444444,0,0,0.010850694444444444,30.09982638888889,0)" xlink:href="#bf"/></g><g id="ak"><use transform="matrix(0.010850694444444444,0,0,0.010850694444444444,0,0)" xlink:href="#bG"/><use transform="matrix(0.010850694444444444,0,0,0.010850694444444444,11.729600694444445,0)" xlink:href="#bt"/><use transform="matrix(0.010850694444444444,0,0,0.010850694444444444,24.869791666666664,0)" xlink:href="#bu"/><use transform="matrix(0.010850694444444444,0,0,0.010850694444444444,38.4765625,0)" xlink:href="#bo"/><use transform="matrix(0.010850694444444444,0,0,0.010850694444444444,51.60590277777778,0)" xlink:href="#bj"/><use transform="matrix(0.010850694444444444,0,0,0.010850694444444444,64.08420138888889,0)" xlink:href="#bv"/><use transform="matrix(0.010850694444444444,0,0,0.010850694444444444,83.55034722222221,0)" xlink:href="#bl"/></g><g id="al"><use transform="matrix(0.010850694444444444,0,0,0.010850694444444444,0,0)" xlink:href="#bR"/><use transform="matrix(0.010850694444444444,0,0,0.010850694444444444,8.10546875,0)" xlink:href="#aX"/><use transform="matrix(0.010850694444444444,0,0,0.010850694444444444,24.84809027777778,0)" xlink:href="#bg"/><use transform="matrix(0.010850694444444444,0,0,0.010850694444444444,37.966579861111114,0)" xlink:href="#bC"/><use transform="matrix(0.010850694444444444,0,0,0.010850694444444444,52.31119791666667,0)" xlink:href="#bS"/></g><g id="am"><use transform="matrix(0.010850694444444444,0,0,0.010850694444444444,0,0)" xlink:href="#be"/><use transform="matrix(0.010850694444444444,0,0,0.010850694444444444,13.975694444444445,0)" xlink:href="#bl"/><use transform="matrix(0.010850694444444444,0,0,0.010850694444444444,26.931423611111104,0)" xlink:href="#bG"/><use transform="matrix(0.010850694444444444,0,0,0.010850694444444444,38.66102430555555,0)" xlink:href="#bF"/><use transform="matrix(0.010850694444444444,0,0,0.010850694444444444,51.98567708333333,0)" xlink:href="#bk"/><use transform="matrix(0.010850694444444444,0,0,0.010850694444444444,57.47612847222221,0)" xlink:href="#bx"/><use transform="matrix(0.010850694444444444,0,0,0.010850694444444444,69.53124999999999,0)" xlink:href="#bl"/><use transform="matrix(0.010850694444444444,0,0,0.010850694444444444,82.48697916666666,0)" xlink:href="#bp"/></g><g id="an"><use transform="matrix(0.010850694444444444,0,0,0.010850694444444444,0,0)" xlink:href="#bm"/><use transform="matrix(0.010850694444444444,0,0,0.010850694444444444,7.052951388888888,0)" xlink:href="#bl"/><use transform="matrix(0.010850694444444444,0,0,0.010850694444444444,19.50954861111111,0)" xlink:href="#bU"/><use transform="matrix(0.010850694444444444,0,0,0.010850694444444444,32.07465277777778,0)" xlink:href="#bm"/></g><g id="ao"><use transform="matrix(0.010850694444444444,0,0,0.010850694444444444,0,0)" xlink:href="#bp"/><use transform="matrix(0.010850694444444444,0,0,0.010850694444444444,7.996961805555555,0)" xlink:href="#bl"/><use transform="matrix(0.010850694444444444,0,0,0.010850694444444444,20.95269097222222,0)" xlink:href="#bz"/><use transform="matrix(0.010850694444444444,0,0,0.010850694444444444,33.64800347222222,0)" xlink:href="#bF"/><use transform="matrix(0.010850694444444444,0,0,0.010850694444444444,46.97265625,0)" xlink:href="#bp"/><use transform="matrix(0.010850694444444444,0,0,0.010850694444444444,54.96961805555556,0)" xlink:href="#by"/><use transform="matrix(0.010850694444444444,0,0,0.010850694444444444,68.57638888888889,0)" xlink:href="#bG"/></g><g id="ap"><use transform="matrix(0.008463541666666668,0,0,0.008463541666666668,0,0)" xlink:href="#bm"/><use transform="matrix(0.008463541666666668,0,0,0.008463541666666668,5.501302083333335,0)" xlink:href="#bl"/><use transform="matrix(0.008463541666666668,0,0,0.008463541666666668,15.21744791666667,0)" xlink:href="#bU"/><use transform="matrix(0.008463541666666668,0,0,0.008463541666666668,25.01822916666667,0)" xlink:href="#bm"/></g><g id="aq"><use transform="matrix(0.008463541666666668,0,0,0.008463541666666668,0,0)" xlink:href="#bp"/><use transform="matrix(0.008463541666666668,0,0,0.008463541666666668,6.237630208333334,0)" xlink:href="#bl"/><use transform="matrix(0.008463541666666668,0,0,0.008463541666666668,16.343098958333336,0)" xlink:href="#bz"/><use transform="matrix(0.008463541666666668,0,0,0.008463541666666668,26.245442708333336,0)" xlink:href="#bF"/><use transform="matrix(0.008463541666666668,0,0,0.008463541666666668,36.638671875,0)" xlink:href="#bp"/><use transform="matrix(0.008463541666666668,0,0,0.008463541666666668,42.876302083333336,0)" xlink:href="#by"/><use transform="matrix(0.008463541666666668,0,0,0.008463541666666668,53.489583333333336,0)" xlink:href="#bG"/></g><g id="ar"><use transform="matrix(0.008463541666666668,0,0,0.008463541666666668,0,0)" xlink:href="#bu"/><use transform="matrix(0.008463541666666668,0,0,0.008463541666666668,10.613281250000002,0)" xlink:href="#bp"/><use transform="matrix(0.008463541666666668,0,0,0.008463541666666668,17.409505208333336,0)" xlink:href="#bw"/><use transform="matrix(0.008463541666666668,0,0,0.008463541666666668,21.607421875000004,0)" xlink:href="#by"/><use transform="matrix(0.008463541666666668,0,0,0.008463541666666668,32.22070312500001,0)" xlink:href="#bN"/><use transform="matrix(0.008463541666666668,0,0,0.008463541666666668,42.850911458333336,0)" xlink:href="#bl"/></g><g id="as"><use transform="matrix(0.010850694444444444,0,0,0.010850694444444444,0,0)" xlink:href="#bC"/><use transform="matrix(0.010850694444444444,0,0,0.010850694444444444,13.0859375,0)" xlink:href="#bp"/><use transform="matrix(0.010850694444444444,0,0,0.010850694444444444,21.451822916666664,0)" xlink:href="#bj"/><use transform="matrix(0.010850694444444444,0,0,0.010850694444444444,33.93012152777777,0)" xlink:href="#bo"/><use transform="matrix(0.010850694444444444,0,0,0.010850694444444444,47.05946180555556,0)" xlink:href="#bG"/><use transform="matrix(0.010850694444444444,0,0,0.010850694444444444,58.789062499999986,0)" xlink:href="#bk"/><use transform="matrix(0.010850694444444444,0,0,0.010850694444444444,64.17100694444444,0)" xlink:href="#bj"/><use transform="matrix(0.010850694444444444,0,0,0.010850694444444444,76.64930555555556,0)" xlink:href="#bm"/><use transform="matrix(0.010850694444444444,0,0,0.010850694444444444,83.91927083333333,0)" xlink:href="#bw"/><use transform="matrix(0.010850694444444444,0,0,0.010850694444444444,89.30121527777777,0)" xlink:href="#bF"/><use transform="matrix(0.010850694444444444,0,0,0.010850694444444444,102.62586805555556,0)" xlink:href="#bo"/></g><use transform="matrix(0.010850694444444444,0,0,0.010850694444444444,0,0)" xlink:href="#bO" id="at"/><g id="au"><use transform="matrix(0.010850694444444444,0,0,0.010850694444444444,0,0)" xlink:href="#be"/><use transform="matrix(0.010850694444444444,0,0,0.010850694444444444,13.975694444444445,0)" xlink:href="#bF"/><use transform="matrix(0.010850694444444444,0,0,0.010850694444444444,27.30034722222222,0)" xlink:href="#bt"/><use transform="matrix(0.010850694444444444,0,0,0.010850694444444444,40.44053819444444,0)" xlink:href="#bm"/><use transform="matrix(0.010850694444444444,0,0,0.010850694444444444,47.49348958333333,0)" xlink:href="#bl"/><use transform="matrix(0.010850694444444444,0,0,0.010850694444444444,60.44921875,0)" xlink:href="#bG"/></g><g id="av"><use transform="matrix(0.010850694444444444,0,0,0.010850694444444444,0,0)" xlink:href="#bd"/><use transform="matrix(0.010850694444444444,0,0,0.010850694444444444,14.073350694444445,0)" xlink:href="#bF"/><use transform="matrix(0.010850694444444444,0,0,0.010850694444444444,27.39800347222222,0)" xlink:href="#bk"/><use transform="matrix(0.010850694444444444,0,0,0.010850694444444444,32.779947916666664,0)" xlink:href="#bk"/><use transform="matrix(0.010850694444444444,0,0,0.010850694444444444,38.16189236111111,0)" xlink:href="#bw"/><use transform="matrix(0.010850694444444444,0,0,0.010850694444444444,43.54383680555555,0)" xlink:href="#bo"/><use transform="matrix(0.010850694444444444,0,0,0.010850694444444444,56.67317708333333,0)" xlink:href="#bN"/></g><g id="aw"><use transform="matrix(0.010850694444444444,0,0,0.010850694444444444,0,0)" xlink:href="#bE"/><use transform="matrix(0.010850694444444444,0,0,0.010850694444444444,16.23263888888889,0)" xlink:href="#bL"/><use transform="matrix(0.010850694444444444,0,0,0.010850694444444444,32.74739583333333,0)" xlink:href="#bD"/><use transform="matrix(0.010850694444444444,0,0,0.010850694444444444,48.07942708333333,0)" xlink:href="#br"/><use transform="matrix(0.010850694444444444,0,0,0.010850694444444444,54.04730902777778,0)" xlink:href="#aX"/><use transform="matrix(0.010850694444444444,0,0,0.010850694444444444,70.78993055555554,0)" xlink:href="#bf"/></g><g id="ax"><use transform="matrix(0.010850694444444444,0,0,0.010850694444444444,0,0)" xlink:href="#bf"/><use transform="matrix(0.010850694444444444,0,0,0.010850694444444444,14.2578125,0)" xlink:href="#bC"/><use transform="matrix(0.010850694444444444,0,0,0.010850694444444444,27.940538194444443,0)" xlink:href="#aY"/><use transform="matrix(0.010850694444444444,0,0,0.010850694444444444,44.93272569444444,0)" xlink:href="#be"/><use transform="matrix(0.010850694444444444,0,0,0.010850694444444444,59.23394097222222,0)" xlink:href="#bD"/><use transform="matrix(0.010850694444444444,0,0,0.010850694444444444,73.80642361111111,0)" xlink:href="#bB"/><use transform="matrix(0.010850694444444444,0,0,0.010850694444444444,90.38628472222221,0)" xlink:href="#ba"/></g><g id="ay"><use transform="matrix(0.010850694444444444,0,0,0.010850694444444444,0,0)" xlink:href="#ba"/><use transform="matrix(0.010850694444444444,0,0,0.010850694444444444,13.35720486111111,0)" xlink:href="#bc"/><use transform="matrix(0.010850694444444444,0,0,0.010850694444444444,28.515625,0)" xlink:href="#ba"/><use transform="matrix(0.010850694444444444,0,0,0.010850694444444444,41.872829861111114,0)" xlink:href="#bE"/><use transform="matrix(0.010850694444444444,0,0,0.010850694444444444,58.10546875,0)" xlink:href="#bh"/><use transform="matrix(0.010850694444444444,0,0,0.010850694444444444,74.64192708333333,0)" xlink:href="#bC"/><use transform="matrix(0.010850694444444444,0,0,0.010850694444444444,88.98654513888889,0)" xlink:href="#br"/><use transform="matrix(0.010850694444444444,0,0,0.010850694444444444,94.95442708333333,0)" xlink:href="#aY"/><use transform="matrix(0.010850694444444444,0,0,0.010850694444444444,111.94661458333333,0)" xlink:href="#aX"/></g><path d="M600 0v-610L52-1490h220l295 481c50 82 90 150 130 243 40-96 80-164 128-243l294-481h219L790-610V0H600" id="ca"/><g id="az"><use transform="matrix(0.010850694444444444,0,0,0.010850694444444444,0,0)" xlink:href="#bs"/><use transform="matrix(0.010850694444444444,0,0,0.010850694444444444,12.565104166666666,0)" xlink:href="#bD"/><use transform="matrix(0.010850694444444444,0,0,0.010850694444444444,26.25868055555556,0)" xlink:href="#ca"/><use transform="matrix(0.010850694444444444,0,0,0.010850694444444444,41.341145833333336,0)" xlink:href="#ba"/><use transform="matrix(0.010850694444444444,0,0,0.010850694444444444,54.69835069444444,0)" xlink:href="#be"/></g><g id="aA"><use transform="matrix(0.010850694444444444,0,0,0.010850694444444444,0,0)" xlink:href="#bq"/><use transform="matrix(0.010850694444444444,0,0,0.010850694444444444,14.539930555555555,0)" xlink:href="#bD"/><use transform="matrix(0.010850694444444444,0,0,0.010850694444444444,29.112413194444443,0)" xlink:href="#bE"/><use transform="matrix(0.010850694444444444,0,0,0.010850694444444444,45.34505208333333,0)" xlink:href="#bK"/><use transform="matrix(0.010850694444444444,0,0,0.010850694444444444,60.275607638888886,0)" xlink:href="#ba"/><use transform="matrix(0.010850694444444444,0,0,0.010850694444444444,73.6328125,0)" xlink:href="#aX"/><use transform="matrix(0.010850694444444444,0,0,0.010850694444444444,90.37543402777777,0)" xlink:href="#aZ"/></g><g id="aB"><use transform="matrix(0.010850694444444444,0,0,0.010850694444444444,0,0)" xlink:href="#bg"/><use transform="matrix(0.010850694444444444,0,0,0.010850694444444444,13.118489583333332,0)" xlink:href="#be"/><use transform="matrix(0.010850694444444444,0,0,0.010850694444444444,27.419704861111104,0)" xlink:href="#aY"/><use transform="matrix(0.010850694444444444,0,0,0.010850694444444444,44.41189236111111,0)" xlink:href="#aX"/><use transform="matrix(0.010850694444444444,0,0,0.010850694444444444,61.154513888888886,0)" xlink:href="#bC"/><use transform="matrix(0.010850694444444444,0,0,0.010850694444444444,75.49913194444444,0)" xlink:href="#ba"/><use transform="matrix(0.010850694444444444,0,0,0.010850694444444444,88.85633680555556,0)" xlink:href="#aX"/><use transform="matrix(0.010850694444444444,0,0,0.010850694444444444,105.59895833333334,0)" xlink:href="#aZ"/></g><g id="aC"><use transform="matrix(0.008463541666666668,0,0,0.008463541666666668,0,0)" xlink:href="#by"/><use transform="matrix(0.008463541666666668,0,0,0.008463541666666668,10.613281250000002,0)" xlink:href="#bl"/><use transform="matrix(0.008463541666666668,0,0,0.008463541666666668,20.718750000000004,0)" xlink:href="#bH"/><use transform="matrix(0.008463541666666668,0,0,0.008463541666666668,31.332031250000007,0)" xlink:href="#bk"/><use transform="matrix(0.008463541666666668,0,0,0.008463541666666668,35.52994791666667,0)" xlink:href="#bF"/><use transform="matrix(0.008463541666666668,0,0,0.008463541666666668,45.58463541666667,0)" xlink:href="#bQ"/><use transform="matrix(0.008463541666666668,0,0,0.008463541666666668,55.32617187500001,0)" xlink:href="#bG"/></g><use transform="matrix(0.008463541666666668,0,0,0.008463541666666668,0,0)" xlink:href="#bb" id="aD"/><g id="aE"><use transform="matrix(0.008463541666666668,0,0,0.008463541666666668,0,0)" xlink:href="#bT"/><use transform="matrix(0.008463541666666668,0,0,0.008463541666666668,6.415364583333334,0)" xlink:href="#bt"/><use transform="matrix(0.008463541666666668,0,0,0.008463541666666668,16.664713541666668,0)" xlink:href="#bo"/><use transform="matrix(0.008463541666666668,0,0,0.008463541666666668,26.905598958333336,0)" xlink:href="#by"/><use transform="matrix(0.008463541666666668,0,0,0.008463541666666668,37.518880208333336,0)" xlink:href="#bG"/></g><g id="aF"><use transform="matrix(0.008463541666666668,0,0,0.008463541666666668,0,0)" xlink:href="#bf"/><use transform="matrix(0.008463541666666668,0,0,0.008463541666666668,11.121093750000002,0)" xlink:href="#bt"/><use transform="matrix(0.008463541666666668,0,0,0.008463541666666668,21.370442708333336,0)" xlink:href="#bu"/><use transform="matrix(0.008463541666666668,0,0,0.008463541666666668,31.983723958333332,0)" xlink:href="#bo"/><use transform="matrix(0.008463541666666668,0,0,0.008463541666666668,42.224609375,0)" xlink:href="#bj"/><use transform="matrix(0.008463541666666668,0,0,0.008463541666666668,51.95768229166667,0)" xlink:href="#bv"/><use transform="matrix(0.008463541666666668,0,0,0.008463541666666668,67.14127604166667,0)" xlink:href="#bl"/></g><g id="aG"><use transform="matrix(0.008463541666666668,0,0,0.008463541666666668,0,0)" xlink:href="#aX"/><use transform="matrix(0.008463541666666668,0,0,0.008463541666666668,13.059244791666668,0)" xlink:href="#bg"/><use transform="matrix(0.008463541666666668,0,0,0.008463541666666668,23.29166666666667,0)" xlink:href="#bC"/></g><g id="aH"><use transform="matrix(0.008463541666666668,0,0,0.008463541666666668,0,0)" xlink:href="#bR"/><use transform="matrix(0.008463541666666668,0,0,0.008463541666666668,6.322265625000001,0)" xlink:href="#bm"/><use transform="matrix(0.008463541666666668,0,0,0.008463541666666668,11.992838541666668,0)" xlink:href="#bp"/><use transform="matrix(0.008463541666666668,0,0,0.008463541666666668,18.518229166666668,0)" xlink:href="#bj"/><use transform="matrix(0.008463541666666668,0,0,0.008463541666666668,28.251302083333336,0)" xlink:href="#bo"/><use transform="matrix(0.008463541666666668,0,0,0.008463541666666668,38.4921875,0)" xlink:href="#bG"/><use transform="matrix(0.008463541666666668,0,0,0.008463541666666668,47.64127604166667,0)" xlink:href="#bT"/><use transform="matrix(0.008463541666666668,0,0,0.008463541666666668,53.54882812500001,0)" xlink:href="#bl"/><use transform="matrix(0.008463541666666668,0,0,0.008463541666666668,63.65429687500001,0)" xlink:href="#bp"/><use transform="matrix(0.008463541666666668,0,0,0.008463541666666668,70.17968750000001,0)" xlink:href="#bj"/><use transform="matrix(0.008463541666666668,0,0,0.008463541666666668,79.9127604166667,0)" xlink:href="#bu"/><use transform="matrix(0.008463541666666668,0,0,0.008463541666666668,90.52604166666669,0)" xlink:href="#bk"/><use transform="matrix(0.008463541666666668,0,0,0.008463541666666668,94.72395833333336,0)" xlink:href="#bl"/><use transform="matrix(0.008463541666666668,0,0,0.008463541666666668,104.63476562500003,0)" xlink:href="#bS"/></g><g id="aI"><use transform="matrix(0.010850694444444444,0,0,0.010850694444444444,0,0)" xlink:href="#be"/><use transform="matrix(0.010850694444444444,0,0,0.010850694444444444,14.301215277777777,0)" xlink:href="#ba"/><use transform="matrix(0.010850694444444444,0,0,0.010850694444444444,27.65842013888889,0)" xlink:href="#bD"/><use transform="matrix(0.010850694444444444,0,0,0.010850694444444444,42.23090277777777,0)" xlink:href="#bE"/><use transform="matrix(0.010850694444444444,0,0,0.010850694444444444,58.46354166666666,0)" xlink:href="#bC"/></g><use transform="matrix(0.010850694444444444,0,0,0.010850694444444444,0,0)" xlink:href="#bb" id="aJ"/><g id="aK"><use transform="matrix(0.010850694444444444,0,0,0.010850694444444444,0,0)" xlink:href="#bi"/><use transform="matrix(0.010850694444444444,0,0,0.010850694444444444,20.638020833333332,0)" xlink:href="#bD"/><use transform="matrix(0.010850694444444444,0,0,0.010850694444444444,35.21050347222222,0)" xlink:href="#bB"/><use transform="matrix(0.010850694444444444,0,0,0.010850694444444444,51.79036458333333,0)" xlink:href="#bM"/><use transform="matrix(0.010850694444444444,0,0,0.010850694444444444,71.86414930555554,0)" xlink:href="#br"/></g><g id="aL"><use transform="matrix(0.010850694444444444,0,0,0.010850694444444444,0,0)" xlink:href="#bg"/><use transform="matrix(0.010850694444444444,0,0,0.010850694444444444,13.118489583333332,0)" xlink:href="#be"/><use transform="matrix(0.010850694444444444,0,0,0.010850694444444444,27.419704861111104,0)" xlink:href="#aY"/><use transform="matrix(0.010850694444444444,0,0,0.010850694444444444,44.41189236111111,0)" xlink:href="#aX"/><use transform="matrix(0.010850694444444444,0,0,0.010850694444444444,61.154513888888886,0)" xlink:href="#bC"/><use transform="matrix(0.010850694444444444,0,0,0.010850694444444444,75.49913194444444,0)" xlink:href="#ba"/><use transform="matrix(0.010850694444444444,0,0,0.010850694444444444,88.85633680555556,0)" xlink:href="#aX"/><use transform="matrix(0.010850694444444444,0,0,0.010850694444444444,105.59895833333334,0)" xlink:href="#aZ"/></g></defs></g></svg>