<?xml version="1.0" encoding="UTF-8"?>
<!-- Generated by Pixelmator Pro 3.4 -->
<svg width="738" height="128" viewBox="0 0 738 128" xmlns="http://www.w3.org/2000/svg">
    <g id="Group">
        <text id="CON" xml:space="preserve" x="33" y="93" font-family="Copperplate" font-size="95" font-weight="700" fill="#0f7173">CON</text>
        <text id="TRUCT" xml:space="preserve" x="368" y="93" font-family="Copperplate" font-size="95" font-weight="700" fill="#0f7173">TRUCT</text>
        <path id="Shape" fill="#0f7173" fill-rule="evenodd" stroke="none" d="M 326.98764 115.894127 C 366.146118 115.002022 367.543518 114.904312 369.433197 112.926514 C 370.537384 111.770821 371.356842 109.548347 371.317383 107.816284 C 371.278992 106.130486 370.764923 103.896805 370.17511 102.852547 C 369.585297 101.808342 367.872345 100.71402 366.368561 100.420731 C 364.864777 100.127426 363.02359 99.711105 362.277008 99.49556 C 361.317261 99.218445 361.801758 98.051407 363.930634 95.51239 C 365.586731 93.537231 367.750702 90.227219 368.739502 88.156815 C 369.728241 86.086472 370.973724 82.073288 371.507111 79.238724 C 372.180023 75.662849 372.125824 72.181564 371.330017 67.868515 C 370.699219 64.449448 369.305847 60.038414 368.233673 58.066124 C 367.161499 56.093842 364.97821 53.296143 363.381836 51.849022 C 361.785522 50.401894 358.206329 48.232742 355.42804 47.028671 C 350.533356 44.90744 349.362457 44.852913 317.687866 45.272545 C 285.794922 45.694962 284.950256 45.756821 282.985016 47.81369 C 281.622192 49.240067 281.000336 51.214928 281.061981 53.920898 C 281.122711 56.586967 281.834778 58.571365 283.198242 59.874092 C 285.155975 61.744637 286.579041 61.797813 316.486908 61.120117 C 345.899536 60.453453 347.924042 60.524071 351.03418 62.324516 C 352.851196 63.376358 355.26532 65.68293 356.398804 67.450142 C 357.741943 69.54422 358.501556 72.439438 358.579712 75.763031 C 358.64563 78.567757 358.215759 82.403748 357.624329 84.287369 C 357.032959 86.17099 355.707031 88.981659 354.677887 90.533279 C 353.648773 92.084854 350.512146 94.632111 347.707611 96.193787 C 342.608459 99.03315 342.608459 99.03315 313.793365 100.189766 C 286.737946 101.275772 284.894562 101.466858 283.605316 103.319366 C 282.85025 104.404526 282.271362 107.006042 282.319092 109.100449 C 282.375488 111.575516 283.121704 113.592598 284.450989 114.862579 C 286.428833 116.752266 287.829224 116.78624 326.98764 115.894127 Z M 301.036652 88.239601 C 331.962097 87.889603 332.773743 87.8302 334.740875 85.771332 C 336.105255 84.343399 336.727142 82.3694 336.665466 79.662506 C 336.604736 76.996376 335.89267 75.012039 334.529205 73.709312 C 332.574463 71.841629 331.15097 71.78566 302.306061 72.442802 C 274.279602 73.081299 271.833649 72.995865 267.996338 71.245071 C 265.723846 70.208252 263.057037 68.061295 262.07016 66.474274 C 260.859802 64.527847 260.22699 61.449142 260.125977 57.014641 C 260.043579 53.398819 260.635803 48.676476 261.442047 46.520363 C 262.248291 44.364372 264.094147 41.413826 265.544006 39.963608 C 266.993835 38.513512 270.183807 36.36451 272.632751 35.188011 C 276.758301 33.205986 279.086395 33.001778 304.329193 32.406303 C 330.224182 31.795486 331.669708 31.662422 333.527008 29.718521 C 334.829742 28.355057 335.450684 26.340294 335.389923 23.674225 C 335.329193 21.008156 334.617157 19.023758 333.253693 17.721031 C 331.275848 15.831291 329.875458 15.797379 290.717041 16.689484 C 251.558594 17.581589 250.161224 17.679245 248.271484 19.657097 C 247.06189 20.923073 246.347839 23.035332 246.397186 25.2015 C 246.446533 27.367676 247.256042 29.445213 248.522034 30.654793 C 249.679901 31.761093 251.900269 32.578453 253.639893 32.538818 C 255.635925 32.493347 256.609436 32.91906 256.418427 33.753868 C 256.256622 34.460655 254.973907 36.627991 253.568115 38.570274 C 252.162231 40.512566 250.066528 44.095093 248.91098 46.531586 C 247.603119 49.289276 246.666992 53.6717 246.431213 58.141342 C 246.161713 63.249405 246.569458 66.959526 247.844208 70.999008 C 249.099243 74.9758 250.929138 77.960442 253.952148 80.960938 C 256.933289 83.919846 259.981964 85.76358 263.808228 86.9216 C 268.557648 88.358986 273.869965 88.547073 301.036652 88.239601 Z"/>
        <path id="Rectangle" fill="#0f7173" fill-rule="evenodd" stroke="none" d="M 21 33 L 721 33 L 721 16 L 21 16 Z"/>
        <path id="Rectangle-copy-2" fill="#0f7173" fill-rule="evenodd" stroke="none" d="M 31 117 L 31 16 L 14 16 L 14 117 Z"/>
        <path id="Rectangle-copy-3" fill="#0f7173" fill-rule="evenodd" stroke="none" d="M 723 117 L 723 16 L 706 16 L 706 117 Z"/>
        <path id="Rectangle-copy" fill="#0f7173" fill-rule="evenodd" stroke="none" d="M 21 117 L 721 117 L 721 99.668938 L 21 99.668938 Z"/>
    </g>
</svg>
