<?xml version="1.0" encoding="UTF-8"?>
<!-- Generated by Pixelmator Pro 3.4 -->
<svg width="761" height="128" viewBox="0 0 761 128" xmlns="http://www.w3.org/2000/svg">
    <g id="Group">
        <text id="CON" xml:space="preserve" x="57" y="91" font-family="Copperplate" font-size="95" font-weight="700" fill="#ffffff">CON</text>
        <text id="TRUCT" xml:space="preserve" x="392" y="91" font-family="Copperplate" font-size="95" font-weight="700" fill="#ffffff">TRUCT</text>
        <path id="Shape" fill="#ffffff" fill-rule="evenodd" stroke="none" d="M 349.98764 115.894127 C 389.146118 115.002022 390.543518 114.904312 392.433197 112.926514 C 393.537384 111.770821 394.356842 109.548347 394.317383 107.816284 C 394.278992 106.130486 393.764923 103.896805 393.17511 102.852547 C 392.585297 101.808342 390.872345 100.71402 389.368561 100.420731 C 387.864777 100.127426 386.02359 99.711105 385.277008 99.49556 C 384.317261 99.218445 384.801758 98.051407 386.930634 95.51239 C 388.586731 93.537231 390.750702 90.227219 391.739502 88.156815 C 392.728241 86.086472 393.973724 82.073288 394.507111 79.238724 C 395.180023 75.662849 395.125824 72.181564 394.330017 67.868515 C 393.699219 64.449448 392.305847 60.038414 391.233673 58.066124 C 390.161499 56.093842 387.97821 53.296143 386.381836 51.849022 C 384.785522 50.401894 381.206329 48.232742 378.42804 47.028671 C 373.533356 44.90744 372.362457 44.852913 340.687866 45.272545 C 308.794922 45.694962 307.950256 45.756821 305.985016 47.81369 C 304.622192 49.240067 304.000336 51.214928 304.061981 53.920898 C 304.122711 56.586967 304.834778 58.571365 306.198242 59.874092 C 308.155975 61.744637 309.579041 61.797813 339.486908 61.120117 C 368.899536 60.453453 370.924042 60.524071 374.03418 62.324516 C 375.851196 63.376358 378.26532 65.68293 379.398804 67.450142 C 380.741943 69.54422 381.501556 72.439438 381.579712 75.763031 C 381.64563 78.567757 381.215759 82.403748 380.624329 84.287369 C 380.032959 86.17099 378.707031 88.981659 377.677887 90.533279 C 376.648773 92.084854 373.512146 94.632111 370.707611 96.193787 C 365.608459 99.03315 365.608459 99.03315 336.793365 100.189766 C 309.737946 101.275772 307.894562 101.466858 306.605316 103.319366 C 305.85025 104.404526 305.271362 107.006042 305.319092 109.100449 C 305.375488 111.575516 306.121704 113.592598 307.450989 114.862579 C 309.428833 116.752266 310.829224 116.78624 349.98764 115.894127 Z M 324.036652 88.239601 C 354.962097 87.889603 355.773743 87.8302 357.740875 85.771332 C 359.105255 84.343399 359.727142 82.3694 359.665466 79.662506 C 359.604736 76.996376 358.89267 75.012039 357.529205 73.709312 C 355.574463 71.841629 354.15097 71.78566 325.306061 72.442802 C 297.279602 73.081299 294.833649 72.995865 290.996338 71.245071 C 288.723846 70.208252 286.057037 68.061295 285.07016 66.474274 C 283.859802 64.527847 283.22699 61.449142 283.125977 57.014641 C 283.043579 53.398819 283.635803 48.676476 284.442047 46.520363 C 285.248291 44.364372 287.094147 41.413826 288.544006 39.963608 C 289.993835 38.513512 293.183807 36.36451 295.632751 35.188011 C 299.758301 33.205986 302.086395 33.001778 327.329193 32.406303 C 353.224182 31.795486 354.669708 31.662422 356.527008 29.718521 C 357.829742 28.355057 358.450684 26.340294 358.389923 23.674225 C 358.329193 21.008156 357.617157 19.023758 356.253693 17.721031 C 354.275848 15.831291 352.875458 15.797379 313.717041 16.689484 C 274.558594 17.581589 273.161224 17.679245 271.271484 19.657097 C 270.06189 20.923073 269.347839 23.035332 269.397186 25.2015 C 269.446533 27.367676 270.256042 29.445213 271.522034 30.654793 C 272.679901 31.761093 274.900269 32.578453 276.639893 32.538818 C 278.635925 32.493347 279.609436 32.91906 279.418427 33.753868 C 279.256622 34.460655 277.973907 36.627991 276.568115 38.570274 C 275.162231 40.512566 273.066528 44.095093 271.91098 46.531586 C 270.603119 49.289276 269.666992 53.6717 269.431213 58.141342 C 269.161713 63.249405 269.569458 66.959526 270.844208 70.999008 C 272.099243 74.9758 273.929138 77.960442 276.952148 80.960938 C 279.933289 83.919846 282.981964 85.76358 286.808228 86.9216 C 291.557648 88.358986 296.869965 88.547073 324.036652 88.239601 Z"/>
        <path id="Rectangle" fill="#ffffff" fill-rule="evenodd" stroke="none" d="M 44 33 L 744 33 L 744 16 L 44 16 Z"/>
        <path id="Rectangle-copy-2" fill="#ffffff" fill-rule="evenodd" stroke="none" d="M 54 117 L 54 16 L 37 16 L 37 117 Z"/>
        <path id="Rectangle-copy-3" fill="#ffffff" fill-rule="evenodd" stroke="none" d="M 746 117 L 746 16 L 729 16 L 729 117 Z"/>
        <path id="Rectangle-copy" fill="#ffffff" fill-rule="evenodd" stroke="none" d="M 44 117 L 744 117 L 744 99.668938 L 44 99.668938 Z"/>
    </g>
</svg>
